<?xml version="1.0" encoding="UTF-8"?>
<!DOCTYPE svg PUBLIC "-//W3C//DTD SVG 1.1//EN" "http://www.w3.org/Graphics/SVG/1.1/DTD/svg11.dtd">
<svg xmlns="http://www.w3.org/2000/svg" version="1.1" width="512px" height="512px" style="shape-rendering:geometricPrecision; text-rendering:geometricPrecision; image-rendering:optimizeQuality; fill-rule:evenodd; clip-rule:evenodd" xmlns:xlink="http://www.w3.org/1999/xlink">
<g><path style="opacity:1" fill="#ae8283" d="M 500.5,10.5 C 500.719,9.32496 500.386,8.32496 499.5,7.5C 497.929,8.30937 496.262,8.64271 494.5,8.5C 496.65,7.32989 498.984,6.32989 501.5,5.5C 502.247,7.28941 501.914,8.95607 500.5,10.5 Z"/></g>
<g><path style="opacity:1" fill="#955c5b" d="M 30.5,9.5 C 39.1855,10.3539 47.8521,11.3539 56.5,12.5C 54.6568,13.2829 52.6568,13.9495 50.5,14.5C 45.2231,12.7056 39.7231,11.7056 34,11.5C 32.3189,11.3917 31.1522,10.7251 30.5,9.5 Z"/></g>
<g><path style="opacity:1" fill="#7e3b3b" d="M 500.5,10.5 C 499.537,13.7442 498.204,16.7442 496.5,19.5C 495.069,20.7804 494.402,22.4471 494.5,24.5C 488.345,40.1351 481.678,55.4684 474.5,70.5C 472.896,71.287 472.229,72.6203 472.5,74.5C 468.48,84.2429 464.48,93.9096 460.5,103.5C 459.728,104.694 458.728,105.694 457.5,106.5C 455.827,105.657 454.66,104.324 454,102.5C 454.535,108.781 454.535,115.115 454,121.5C 448.545,132.74 443.378,144.074 438.5,155.5C 436.896,156.287 436.229,157.62 436.5,159.5C 435.321,163.533 433.655,167.366 431.5,171C 428.961,171.796 426.628,171.629 424.5,170.5C 424.59,167.848 423.924,165.515 422.5,163.5C 421.596,162.791 421.263,161.791 421.5,160.5C 421.357,158.738 421.691,157.071 422.5,155.5C 422.154,154.304 421.654,154.304 421,155.5C 420.383,154.551 420.549,153.718 421.5,153C 420.473,152.487 419.473,151.987 418.5,151.5C 418.88,149.302 418.213,147.635 416.5,146.5C 415.962,144.883 415.629,143.216 415.5,141.5C 415.178,139.278 415.845,137.444 417.5,136C 416.551,135.383 415.718,135.549 415,136.5C 414.392,134.934 413.558,133.6 412.5,132.5C 411.933,130.031 411.933,127.698 412.5,125.5C 412.427,123.973 413.094,122.973 414.5,122.5C 415.906,122.027 416.573,121.027 416.5,119.5C 418.445,115.264 421.112,111.597 424.5,108.5C 425.906,108.027 426.573,107.027 426.5,105.5C 428.989,100.862 431.156,96.1955 433,91.5C 416.287,109.376 399.787,127.376 383.5,145.5C 380.141,141.295 377.141,136.795 374.5,132C 370.25,129.626 366.084,127.126 362,124.5C 361.333,123.833 361.333,123.167 362,122.5C 376.729,108.571 391.896,95.2372 407.5,82.5C 410.427,81.2427 412.761,79.2427 414.5,76.5C 414.953,75.5416 415.619,74.7083 416.5,74C 415.906,73.5357 415.239,73.369 414.5,73.5C 412.973,73.427 411.973,74.0937 411.5,75.5C 403.336,80.4166 395.003,85.0833 386.5,89.5C 384.973,89.427 383.973,90.0937 383.5,91.5C 382.71,92.4013 381.71,93.0679 380.5,93.5C 378.194,93.0074 375.861,92.6741 373.5,92.5C 371.214,92.405 369.214,91.7384 367.5,90.5C 365.485,89.0762 363.152,88.4095 360.5,88.5C 358.044,86.1324 355.044,85.1324 351.5,85.5C 348.916,83.5275 345.916,82.5275 342.5,82.5C 340.5,82.1667 338.5,81.8333 336.5,81.5C 336.5,80.5 336.5,79.5 336.5,78.5C 337.345,77.3285 338.011,75.9952 338.5,74.5C 357.521,64.8278 377.188,56.4945 397.5,49.5C 400.216,49.6138 402.216,48.6138 403.5,46.5C 404.473,46.0133 405.473,45.5133 406.5,45C 413.158,44.5004 419.825,44.3337 426.5,44.5C 431.64,45.4881 436.974,45.8214 442.5,45.5C 442.17,42.8906 440.67,41.2239 438,40.5C 437.586,40.9574 437.086,41.2907 436.5,41.5C 435.016,39.9263 433.349,38.593 431.5,37.5C 432.193,36.4822 432.859,35.4822 433.5,34.5C 453.102,24.2935 473.435,15.6269 494.5,8.5C 496.262,8.64271 497.929,8.30937 499.5,7.5C 500.386,8.32496 500.719,9.32496 500.5,10.5 Z"/></g>
<g><path style="opacity:1" fill="#7d3939" d="M 30.5,9.5 C 31.1522,10.7251 32.3189,11.3917 34,11.5C 39.7231,11.7056 45.2231,12.7056 50.5,14.5C 52.6568,13.9495 54.6568,13.2829 56.5,12.5C 56.8333,12.5 57.1667,12.5 57.5,12.5C 57.7496,13.9221 58.583,14.9221 60,15.5C 63.2417,15.4685 66.4084,15.1352 69.5,14.5C 79.4214,16.1101 89.4214,16.7768 99.5,16.5C 101.571,17.8086 104.071,18.4752 107,18.5C 109.69,18.4971 112.19,18.1638 114.5,17.5C 130.677,22.2771 145.677,29.4437 159.5,39C 161.72,41.7128 163.72,44.5461 165.5,47.5C 165.427,49.0269 166.094,50.0269 167.5,50.5C 181.411,64.5811 195.245,78.9144 209,93.5C 210.937,97.8166 212.77,102.15 214.5,106.5C 214.579,107.93 214.246,109.264 213.5,110.5C 215.903,114.06 218.07,117.727 220,121.5C 220.414,121.043 220.914,120.709 221.5,120.5C 225.012,123.226 229.012,124.56 233.5,124.5C 236.833,127.167 239.833,130.167 242.5,133.5C 243.08,135.749 244.413,137.415 246.5,138.5C 252.538,143.537 257.871,149.203 262.5,155.5C 263.08,157.749 264.413,159.415 266.5,160.5C 271.54,164.539 275.873,169.206 279.5,174.5C 277.535,174.948 277.202,175.948 278.5,177.5C 284.493,181.993 289.659,187.327 294,193.5C 295.188,192.652 296.688,192.652 298.5,193.5C 302.192,196.862 305.859,200.195 309.5,203.5C 309.5,205.5 310.5,206.5 312.5,206.5C 326.924,220.921 340.257,236.254 352.5,252.5C 352.5,254.5 353.5,255.5 355.5,255.5C 359.21,259.208 362.543,263.208 365.5,267.5C 365.833,268.833 366.167,270.167 366.5,271.5C 354.859,281.474 343.859,292.14 333.5,303.5C 327.812,298.479 322.479,293.146 317.5,287.5C 316.089,285.086 314.089,283.419 311.5,282.5C 310.5,282.167 309.833,281.5 309.5,280.5C 309.027,279.094 308.027,278.427 306.5,278.5C 298.276,272.784 290.776,266.117 284,258.5C 269.526,241.233 254.36,224.567 238.5,208.5C 237.415,206.413 235.749,205.08 233.5,204.5C 227.528,198.193 221.528,191.86 215.5,185.5C 215.5,183.5 214.5,182.5 212.5,182.5C 211.5,182.167 210.833,181.5 210.5,180.5C 210.027,179.094 209.027,178.427 207.5,178.5C 193.432,167.268 180.432,154.768 168.5,141C 155.627,131.127 144.46,119.627 135,106.5C 131.335,103.601 127.835,100.601 124.5,97.5C 124.027,96.0937 123.027,95.427 121.5,95.5C 121.027,94.0937 120.027,93.427 118.5,93.5C 109.133,86.984 99.1331,81.8174 88.5,78C 91.8307,82.8281 94.4973,87.9948 96.5,93.5C 96.427,95.0269 97.0937,96.0269 98.5,96.5C 103.735,103.959 108.735,111.626 113.5,119.5C 113.833,121.833 115.167,123.167 117.5,123.5C 117.833,125.833 119.167,127.167 121.5,127.5C 121.5,129.5 122.5,130.5 124.5,130.5C 124.343,131.873 124.51,133.207 125,134.5C 125.986,133.829 127.153,133.829 128.5,134.5C 129.974,135.436 130.974,136.77 131.5,138.5C 132.476,139.815 133.476,141.148 134.5,142.5C 133.41,143.609 133.41,144.609 134.5,145.5C 135.192,144.975 135.692,144.308 136,143.5C 136.671,144.252 137.504,144.586 138.5,144.5C 165.32,169.153 191.654,194.32 217.5,220C 222.881,226.593 228.381,233.093 234,239.5C 243.031,247.7 251.864,256.033 260.5,264.5C 261.419,267.089 263.086,269.089 265.5,270.5C 282.232,285.897 297.899,302.23 312.5,319.5C 312.607,321.379 312.107,321.712 311,320.5C 310.505,322.473 310.338,324.473 310.5,326.5C 301.827,335.173 293.494,344.173 285.5,353.5C 278.779,346.775 271.779,340.442 264.5,334.5C 251.423,324.298 238.756,313.632 226.5,302.5C 225.089,300.086 223.089,298.419 220.5,297.5C 205.288,286.626 191.288,274.293 178.5,260.5C 177.41,256.651 176.077,252.984 174.5,249.5C 174.5,249.167 174.5,248.833 174.5,248.5C 174.57,244.575 173.903,240.909 172.5,237.5C 166.417,238.9 160.417,238.733 154.5,237C 140.906,225.384 127.573,213.551 114.5,201.5C 114.027,200.094 113.027,199.427 111.5,199.5C 85.9519,181.621 63.6186,160.287 44.5,135.5C 43.8288,134.153 43.8288,132.986 44.5,132C 41.7409,128.493 39.0742,124.993 36.5,121.5C 36.5668,119.599 36.2335,117.766 35.5,116C 35.7591,114.739 36.4258,113.739 37.5,113C 36.0406,113.355 34.7072,113.189 33.5,112.5C 32.0699,105.001 30.4032,97.6681 28.5,90.5C 27.6586,88.6208 27.3253,86.6208 27.5,84.5C 27.2702,79.1194 26.6035,73.786 25.5,68.5C 25.3601,66.9704 24.6935,65.9704 23.5,65.5C 23.552,63.0971 23.2186,60.7638 22.5,58.5C 23.1599,57.036 23.4932,55.3693 23.5,53.5C 22.8007,46.9781 21.8007,40.6447 20.5,34.5C 19.5888,25.8742 19.2555,17.2075 19.5,8.5C 23.1788,8.72442 26.8455,9.05775 30.5,9.5 Z"/></g>
<g><path style="opacity:1" fill="#996363" d="M 57.5,12.5 C 61.4185,13.4416 65.4185,14.1082 69.5,14.5C 66.4084,15.1352 63.2417,15.4685 60,15.5C 58.583,14.9221 57.7496,13.9221 57.5,12.5 Z"/></g>
<g><path style="opacity:1" fill="#a46f70" d="M 99.5,16.5 C 104.518,16.6133 109.518,16.9466 114.5,17.5C 109.518,16.9466 104.518,16.6133 99.5,16.5 Z"/></g>
<g><path style="opacity:1" fill="#bf9192" d="M 496.5,19.5 C 496.598,21.5529 495.931,23.2196 494.5,24.5C 494.402,22.4471 495.069,20.7804 496.5,19.5 Z"/></g>
<g><path style="opacity:1" fill="#925859" d="M 433.5,34.5 C 432.859,35.4822 432.193,36.4822 431.5,37.5C 433.349,38.593 435.016,39.9263 436.5,41.5C 437.086,41.2907 437.586,40.9574 438,40.5C 440.67,41.2239 442.17,42.8906 442.5,45.5C 436.974,45.8214 431.64,45.4881 426.5,44.5C 430.846,44.6657 435.179,44.499 439.5,44C 434.888,42.3606 430.554,40.1939 426.5,37.5C 428.487,35.6726 430.821,34.6726 433.5,34.5 Z"/></g>
<g><path style="opacity:1" fill="#a36d6c" d="M 403.5,46.5 C 402.216,48.6138 400.216,49.6138 397.5,49.5C 399.181,47.9925 401.181,46.9925 403.5,46.5 Z"/></g>
<g><path style="opacity:1" fill="#a16d6e" d="M 20.5,34.5 C 21.8007,40.6447 22.8007,46.9781 23.5,53.5C 23.4932,55.3693 23.1599,57.036 22.5,58.5C 21.6074,50.802 20.9407,42.802 20.5,34.5 Z"/></g>
<g><path style="opacity:1" fill="#b88787" d="M 165.5,47.5 C 166.906,47.9731 167.573,48.9731 167.5,50.5C 166.094,50.0269 165.427,49.0269 165.5,47.5 Z"/></g>
<g><path style="opacity:1" fill="#ce9495" d="M 417.5,73.5 C 417.5,72.8333 417.167,72.5 416.5,72.5C 417.875,70.9302 419.541,70.0969 421.5,70C 420.295,71.3756 418.962,72.5423 417.5,73.5 Z"/></g>
<g><path style="opacity:1" fill="#b27f80" d="M 23.5,65.5 C 24.6935,65.9704 25.3601,66.9704 25.5,68.5C 26.6035,73.786 27.2702,79.1194 27.5,84.5C 25.9318,78.3317 24.5985,71.9984 23.5,65.5 Z"/></g>
<g><path style="opacity:1" fill="#c49699" d="M 474.5,70.5 C 474.34,72.153 473.674,73.4863 472.5,74.5C 472.229,72.6203 472.896,71.287 474.5,70.5 Z"/></g>
<g><path style="opacity:1" fill="#d3a4a4" d="M 414.5,73.5 C 414.027,74.9063 413.027,75.573 411.5,75.5C 411.973,74.0937 412.973,73.427 414.5,73.5 Z"/></g>
<g><path style="opacity:1" fill="#bb8d8d" d="M 338.5,74.5 C 338.011,75.9952 337.345,77.3285 336.5,78.5C 336.157,76.5168 336.824,75.1834 338.5,74.5 Z"/></g>
<g><path style="opacity:1" fill="#ac787a" d="M 414.5,76.5 C 412.761,79.2427 410.427,81.2427 407.5,82.5C 409.239,79.7573 411.573,77.7573 414.5,76.5 Z"/></g>
<g><path style="opacity:1" fill="#ae7a7b" d="M 342.5,82.5 C 345.916,82.5275 348.916,83.5275 351.5,85.5C 348.215,85.0719 345.215,84.0719 342.5,82.5 Z"/></g>
<g><path style="opacity:1" fill="#a16e70" d="M 351.5,85.5 C 355.044,85.1324 358.044,86.1324 360.5,88.5C 357.215,88.0719 354.215,87.0719 351.5,85.5 Z"/></g>
<g><path style="opacity:1" fill="#dca5a5" d="M 433.5,90.5 C 434.348,88.4931 435.682,87.3265 437.5,87C 436.897,89.0714 435.564,90.2381 433.5,90.5 Z"/></g>
<g><path style="opacity:1" fill="#aa7575" d="M 360.5,88.5 C 363.152,88.4095 365.485,89.0762 367.5,90.5C 364.848,90.5905 362.515,89.9238 360.5,88.5 Z"/></g>
<g><path style="opacity:1" fill="#c69193" d="M 386.5,89.5 C 386.027,90.9063 385.027,91.573 383.5,91.5C 383.973,90.0937 384.973,89.427 386.5,89.5 Z"/></g>
<g><path style="opacity:1" fill="#c08d8d" d="M 118.5,93.5 C 120.027,93.427 121.027,94.0937 121.5,95.5C 119.973,95.573 118.973,94.9063 118.5,93.5 Z"/></g>
<g><path style="opacity:1" fill="#af8080" d="M 373.5,92.5 C 375.861,92.6741 378.194,93.0074 380.5,93.5C 378.047,94.6451 375.713,94.3117 373.5,92.5 Z"/></g>
<g><path style="opacity:1" fill="#b98b8b" d="M 28.5,90.5 C 30.4032,97.6681 32.0699,105.001 33.5,112.5C 30.5774,105.569 28.9108,98.2358 28.5,90.5 Z"/></g>
<g><path style="opacity:1" fill="#c29295" d="M 96.5,93.5 C 97.9063,93.9731 98.573,94.9731 98.5,96.5C 97.0937,96.0269 96.427,95.0269 96.5,93.5 Z"/></g>
<g><path style="opacity:1" fill="#b8858b" d="M 121.5,95.5 C 123.027,95.427 124.027,96.0937 124.5,97.5C 122.973,97.573 121.973,96.9063 121.5,95.5 Z"/></g>
<g><path style="opacity:1" fill="#c19194" d="M 426.5,105.5 C 426.573,107.027 425.906,108.027 424.5,108.5C 424.427,106.973 425.094,105.973 426.5,105.5 Z"/></g>
<g><path style="opacity:1" fill="#b78e90" d="M 460.5,103.5 C 460.617,105.484 459.95,107.15 458.5,108.5C 457.702,108.043 457.369,107.376 457.5,106.5C 458.728,105.694 459.728,104.694 460.5,103.5 Z"/></g>
<g><path style="opacity:1" fill="#9f6668" d="M 33.5,112.5 C 34.7072,113.189 36.0406,113.355 37.5,113C 36.4258,113.739 35.7591,114.739 35.5,116C 36.2335,117.766 36.5668,119.599 36.5,121.5C 34.9281,118.785 33.9281,115.785 33.5,112.5 Z"/></g>
<g><path style="opacity:1" fill="#92595a" d="M 214.5,106.5 C 216.411,110.815 218.745,114.981 221.5,119C 225.848,120.379 229.848,122.213 233.5,124.5C 229.012,124.56 225.012,123.226 221.5,120.5C 220.914,120.709 220.414,121.043 220,121.5C 218.07,117.727 215.903,114.06 213.5,110.5C 214.246,109.264 214.579,107.93 214.5,106.5 Z"/></g>
<g><path style="opacity:1" fill="#cda6a4" d="M 113.5,119.5 C 115.167,120.5 116.5,121.833 117.5,123.5C 115.167,123.167 113.833,121.833 113.5,119.5 Z"/></g>
<g><path style="opacity:1" fill="#c09599" d="M 416.5,119.5 C 416.573,121.027 415.906,122.027 414.5,122.5C 414.427,120.973 415.094,119.973 416.5,119.5 Z"/></g>
<g><path style="opacity:1" fill="#ceaaa9" d="M 117.5,123.5 C 119.167,124.5 120.5,125.833 121.5,127.5C 119.167,127.167 117.833,125.833 117.5,123.5 Z"/></g>
<g><path style="opacity:1" fill="#8b5253" d="M 36.5,121.5 C 39.0742,124.993 41.7409,128.493 44.5,132C 43.8288,132.986 43.8288,134.153 44.5,135.5C 39.782,132.071 37.1153,127.404 36.5,121.5 Z"/></g>
<g><path style="opacity:1" fill="#cea9ad" d="M 121.5,127.5 C 122.833,128.167 123.833,129.167 124.5,130.5C 122.5,130.5 121.5,129.5 121.5,127.5 Z"/></g>
<g><path style="opacity:1" fill="#d7b4b5" d="M 412.5,125.5 C 411.933,127.698 411.933,130.031 412.5,132.5C 411.467,131.088 410.801,129.422 410.5,127.5C 410.747,126.287 411.414,125.62 412.5,125.5 Z"/></g>
<g><path style="opacity:1" fill="#a57170" d="M 124.5,130.5 C 126.167,131.5 127.5,132.833 128.5,134.5C 127.153,133.829 125.986,133.829 125,134.5C 124.51,133.207 124.343,131.873 124.5,130.5 Z"/></g>
<g><path style="opacity:1" fill="#b48587" d="M 242.5,133.5 C 244.587,134.585 245.92,136.251 246.5,138.5C 244.413,137.415 243.08,135.749 242.5,133.5 Z"/></g>
<g><path style="opacity:1" fill="#7c3a3a" d="M 359.5,132.5 C 363.684,132.592 367.017,134.259 369.5,137.5C 369.427,139.027 370.094,140.027 371.5,140.5C 371.427,142.027 372.094,143.027 373.5,143.5C 374.946,145.782 375.279,148.115 374.5,150.5C 359.014,165.486 343.681,180.653 328.5,196C 327.833,196.667 327.167,196.667 326.5,196C 320.91,191.719 315.577,187.219 310.5,182.5C 326.115,165.218 342.448,148.551 359.5,132.5 Z"/></g>
<g><path style="opacity:1" fill="#9f6a6a" d="M 412.5,132.5 C 413.558,133.6 414.392,134.934 415,136.5C 415.718,135.549 416.551,135.383 417.5,136C 415.845,137.444 415.178,139.278 415.5,141.5C 413.928,138.785 412.928,135.785 412.5,132.5 Z"/></g>
<g><path style="opacity:1" fill="#bd8f91" d="M 369.5,137.5 C 370.906,137.973 371.573,138.973 371.5,140.5C 370.094,140.027 369.427,139.027 369.5,137.5 Z"/></g>
<g><path style="opacity:1" fill="#d0a6a5" d="M 371.5,140.5 C 372.906,140.973 373.573,141.973 373.5,143.5C 372.094,143.027 371.427,142.027 371.5,140.5 Z"/></g>
<g><path style="opacity:1" fill="#995f60" d="M 131.5,138.5 C 134.249,139.974 136.582,141.974 138.5,144.5C 137.504,144.586 136.671,144.252 136,143.5C 135.692,144.308 135.192,144.975 134.5,145.5C 133.41,144.609 133.41,143.609 134.5,142.5C 133.476,141.148 132.476,139.815 131.5,138.5 Z"/></g>
<g><path style="opacity:1" fill="#b9878b" d="M 359.5,132.5 C 342.448,148.551 326.115,165.218 310.5,182.5C 308.972,182.483 308.472,181.816 309,180.5C 325.167,164.333 341.333,148.167 357.5,132C 358.437,131.308 359.103,131.475 359.5,132.5 Z"/></g>
<g><path style="opacity:1" fill="#c99b9c" d="M 416.5,146.5 C 418.213,147.635 418.88,149.302 418.5,151.5C 417.463,150.07 416.796,148.403 416.5,146.5 Z"/></g>
<g><path style="opacity:1" fill="#9f6969" d="M 418.5,151.5 C 419.473,151.987 420.473,152.487 421.5,153C 420.549,153.718 420.383,154.551 421,155.5C 421.654,154.304 422.154,154.304 422.5,155.5C 421.691,157.071 421.357,158.738 421.5,160.5C 419.928,157.785 418.928,154.785 418.5,151.5 Z"/></g>
<g><path style="opacity:1" fill="#b7888b" d="M 262.5,155.5 C 264.587,156.585 265.92,158.251 266.5,160.5C 264.413,159.415 263.08,157.749 262.5,155.5 Z"/></g>
<g><path style="opacity:1" fill="#cfa6a7" d="M 438.5,155.5 C 438.34,157.153 437.674,158.486 436.5,159.5C 436.229,157.62 436.896,156.287 438.5,155.5 Z"/></g>
<g><path style="opacity:1" fill="#cca0a0" d="M 422.5,163.5 C 423.924,165.515 424.59,167.848 424.5,170.5C 423.076,168.485 422.41,166.152 422.5,163.5 Z"/></g>
<g><path style="opacity:1" fill="#874d4c" d="M 279.5,174.5 C 285.5,181.167 291.833,187.5 298.5,193.5C 296.688,192.652 295.188,192.652 294,193.5C 289.659,187.327 284.493,181.993 278.5,177.5C 277.202,175.948 277.535,174.948 279.5,174.5 Z"/></g>
<g><path style="opacity:1" fill="#bd9392" d="M 207.5,178.5 C 209.027,178.427 210.027,179.094 210.5,180.5C 208.973,180.573 207.973,179.906 207.5,178.5 Z"/></g>
<g><path style="opacity:1" fill="#b9898a" d="M 212.5,182.5 C 214.5,182.5 215.5,183.5 215.5,185.5C 214.167,184.833 213.167,183.833 212.5,182.5 Z"/></g>
<g><path style="opacity:1" fill="#c18d91" d="M 111.5,199.5 C 113.027,199.427 114.027,200.094 114.5,201.5C 112.973,201.573 111.973,200.906 111.5,199.5 Z"/></g>
<g><path style="opacity:1" fill="#bc8d8e" d="M 233.5,204.5 C 235.749,205.08 237.415,206.413 238.5,208.5C 236.251,207.92 234.585,206.587 233.5,204.5 Z"/></g>
<g><path style="opacity:1" fill="#c49897" d="M 309.5,203.5 C 310.833,204.167 311.833,205.167 312.5,206.5C 310.5,206.5 309.5,205.5 309.5,203.5 Z"/></g>
<g><path style="opacity:1" fill="#d09ea0" d="M 424.5,236.5 C 419.52,235.985 414.854,236.652 410.5,238.5C 410.5,237.5 410.5,236.5 410.5,235.5C 415.363,235.181 420.03,235.514 424.5,236.5 Z"/></g>
<g><path style="opacity:1" fill="#844647" d="M 430.5,236.5 C 440.833,236.5 451.167,236.5 461.5,236.5C 461.5,253.5 461.5,270.5 461.5,287.5C 456.574,289.364 451.574,291.031 446.5,292.5C 446.579,291.07 446.246,289.736 445.5,288.5C 449.459,287.673 453.459,287.173 457.5,287C 455.993,286.163 455.493,284.996 456,283.5C 457.049,284.517 458.216,284.684 459.5,284C 458.833,280.667 458.167,277.333 457.5,274C 458.552,272.284 457.886,271.284 455.5,271C 456.833,270 458.167,269 459.5,268C 458.521,266.221 458.854,264.555 460.5,263C 459.85,260.544 458.85,258.21 457.5,256C 460.067,251.501 459.9,247.001 457,242.5C 456.667,244.167 456.333,245.833 456,247.5C 455.503,244.854 455.336,242.187 455.5,239.5C 453.473,239.662 451.473,239.495 449.5,239C 450.833,238.667 452.167,238.333 453.5,238C 445.656,237.829 437.989,237.329 430.5,236.5 Z"/></g>
<g><path style="opacity:1" fill="#7d3939" d="M 424.5,236.5 C 426.5,236.5 428.5,236.5 430.5,236.5C 437.989,237.329 445.656,237.829 453.5,238C 452.167,238.333 450.833,238.667 449.5,239C 451.473,239.495 453.473,239.662 455.5,239.5C 455.336,242.187 455.503,244.854 456,247.5C 456.333,245.833 456.667,244.167 457,242.5C 459.9,247.001 460.067,251.501 457.5,256C 458.85,258.21 459.85,260.544 460.5,263C 458.854,264.555 458.521,266.221 459.5,268C 458.167,269 456.833,270 455.5,271C 457.886,271.284 458.552,272.284 457.5,274C 458.167,277.333 458.833,280.667 459.5,284C 458.216,284.684 457.049,284.517 456,283.5C 455.493,284.996 455.993,286.163 457.5,287C 453.459,287.173 449.459,287.673 445.5,288.5C 446.246,289.736 446.579,291.07 446.5,292.5C 446.158,293.338 445.492,293.672 444.5,293.5C 445.463,292.637 445.463,291.97 444.5,291.5C 442.941,292.074 441.441,292.74 440,293.5C 439.667,293.167 439.333,292.833 439,292.5C 437.268,294.195 435.268,295.528 433,296.5C 430.929,295.333 429.429,295.999 428.5,298.5C 427.914,298.291 427.414,297.957 427,297.5C 426.274,300.288 424.44,301.788 421.5,302C 420.402,302.77 420.402,303.603 421.5,304.5C 419.5,307.167 417.167,309.5 414.5,311.5C 410.019,313.459 406.185,316.459 403,320.5C 401.562,321.9 400.729,323.567 400.5,325.5C 399.04,327.463 397.373,329.296 395.5,331C 406.339,342.672 417.339,354.172 428.5,365.5C 429.08,367.749 430.413,369.415 432.5,370.5C 444.3,381.296 454.633,393.296 463.5,406.5C 463.427,408.027 464.094,409.027 465.5,409.5C 467.719,411.575 469.719,413.909 471.5,416.5C 458.418,428.748 445.918,441.414 434,454.5C 420.322,443.65 406.822,432.65 393.5,421.5C 393.027,420.094 392.027,419.427 390.5,419.5C 376.17,406.004 361.67,392.671 347,379.5C 337.97,388.864 328.637,397.864 319,406.5C 314.239,419.187 309.072,431.687 303.5,444C 303.833,444.333 304.167,444.667 304.5,445C 294.172,445.5 283.839,445.666 273.5,445.5C 267.355,444.51 261.022,444.177 254.5,444.5C 254.5,428.167 254.5,411.833 254.5,395.5C 257.931,395.955 260.264,394.621 261.5,391.5C 264.346,391.448 266.68,390.448 268.5,388.5C 275.627,385.109 282.961,381.943 290.5,379C 310.035,359.298 329.701,339.798 349.5,320.5C 352.5,319.5 354.5,317.5 355.5,314.5C 362.778,308.891 369.444,302.558 375.5,295.5C 379.5,290.833 383.833,286.5 388.5,282.5C 391.573,280.431 393.906,277.764 395.5,274.5C 397.566,272.706 399.232,270.54 400.5,268C 399.748,267.329 399.414,266.496 399.5,265.5C 400.898,263.194 402.565,261.027 404.5,259C 403.663,257.989 403.33,256.822 403.5,255.5C 405.264,249.527 407.597,243.86 410.5,238.5C 414.854,236.652 419.52,235.985 424.5,236.5 Z"/></g>
<g><path style="opacity:1" fill="#bb8d8f" d="M 172.5,237.5 C 173.903,240.909 174.57,244.575 174.5,248.5C 173.097,245.091 172.43,241.425 172.5,237.5 Z"/></g>
<g><path style="opacity:1" fill="#ab7979" d="M 174.5,249.5 C 176.077,252.984 177.41,256.651 178.5,260.5C 177.503,260.53 176.836,260.03 176.5,259C 175.639,255.863 174.973,252.697 174.5,249.5 Z"/></g>
<g><path style="opacity:1" fill="#c29193" d="M 352.5,252.5 C 353.833,253.167 354.833,254.167 355.5,255.5C 353.5,255.5 352.5,254.5 352.5,252.5 Z"/></g>
<g><path style="opacity:1" fill="#9f6a68" d="M 403.5,255.5 C 403.33,256.822 403.663,257.989 404.5,259C 402.565,261.027 400.898,263.194 399.5,265.5C 400.263,261.863 401.597,258.53 403.5,255.5 Z"/></g>
<g><path style="opacity:1" fill="#be8b8a" d="M 260.5,264.5 C 262.914,265.911 264.581,267.911 265.5,270.5C 263.086,269.089 261.419,267.089 260.5,264.5 Z"/></g>
<g><path style="opacity:1" fill="#bd928f" d="M 365.5,267.5 C 367.519,268.538 367.853,269.872 366.5,271.5C 366.167,270.167 365.833,268.833 365.5,267.5 Z"/></g>
<g><path style="opacity:1" fill="#965d5f" d="M 399.5,265.5 C 399.414,266.496 399.748,267.329 400.5,268C 399.232,270.54 397.566,272.706 395.5,274.5C 396.463,271.256 397.796,268.256 399.5,265.5 Z"/></g>
<g><path style="opacity:1" fill="#b48483" d="M 395.5,274.5 C 393.906,277.764 391.573,280.431 388.5,282.5C 390.094,279.236 392.427,276.569 395.5,274.5 Z"/></g>
<g><path style="opacity:1" fill="#ba8a8a" d="M 306.5,278.5 C 308.027,278.427 309.027,279.094 309.5,280.5C 307.973,280.573 306.973,279.906 306.5,278.5 Z"/></g>
<g><path style="opacity:1" fill="#bd8f90" d="M 311.5,282.5 C 314.089,283.419 316.089,285.086 317.5,287.5C 314.911,286.581 312.911,284.914 311.5,282.5 Z"/></g>
<g><path style="opacity:1" fill="#8b5252" d="M 444.5,293.5 C 436.746,296.876 429.079,300.543 421.5,304.5C 420.402,303.603 420.402,302.77 421.5,302C 424.44,301.788 426.274,300.288 427,297.5C 427.414,297.957 427.914,298.291 428.5,298.5C 429.429,295.999 430.929,295.333 433,296.5C 435.268,295.528 437.268,294.195 439,292.5C 439.333,292.833 439.667,293.167 440,293.5C 441.441,292.74 442.941,292.074 444.5,291.5C 445.463,291.97 445.463,292.637 444.5,293.5 Z"/></g>
<g><path style="opacity:1" fill="#ae7f7e" d="M 220.5,297.5 C 223.089,298.419 225.089,300.086 226.5,302.5C 223.911,301.581 221.911,299.914 220.5,297.5 Z"/></g>
<g><path style="opacity:1" fill="#7d3a3b" d="M 190.5,302.5 C 197.151,306.423 202.484,311.757 206.5,318.5C 155.135,369.329 103.801,419.996 52.5,470.5C 51.609,469.89 50.609,469.557 49.5,469.5C 46.4744,466.805 43.4744,464.138 40.5,461.5C 40.5,459.5 39.5,458.5 37.5,458.5C 36.5,458.167 35.8333,457.5 35.5,456.5C 34.1667,455.5 34.1667,454.5 35.5,453.5C 40.8333,450.167 45.1667,445.833 48.5,440.5C 51.8333,439.167 54.1667,436.833 55.5,433.5C 55.8333,432.5 56.5,431.833 57.5,431.5C 62.8333,428.167 67.1667,423.833 70.5,418.5C 79.1123,411.556 87.1123,403.889 94.5,395.5C 106.833,382.5 119.5,369.833 132.5,357.5C 136.5,355.5 139.5,352.5 141.5,348.5C 145.167,344.167 149.167,340.167 153.5,336.5C 155.5,336.5 156.5,335.5 156.5,333.5C 156.833,332.5 157.5,331.833 158.5,331.5C 162.167,329.833 164.833,327.167 166.5,323.5C 174.5,316.5 182.5,309.5 190.5,302.5 Z"/></g>
<g><path style="opacity:1" fill="#9c6969" d="M 375.5,295.5 C 369.444,302.558 362.778,308.891 355.5,314.5C 361.556,307.442 368.222,301.109 375.5,295.5 Z"/></g>
<g><path style="opacity:1" fill="#8b5352" d="M 414.5,311.5 C 410.167,316.5 405.5,321.167 400.5,325.5C 400.729,323.567 401.562,321.9 403,320.5C 406.185,316.459 410.019,313.459 414.5,311.5 Z"/></g>
<g><path style="opacity:1" fill="#a77375" d="M 190.5,302.5 C 182.5,309.5 174.5,316.5 166.5,323.5C 173.297,316.202 180.297,309.035 187.5,302C 188.749,301.26 189.749,301.427 190.5,302.5 Z"/></g>
<g><path style="opacity:1" fill="#a37074" d="M 355.5,314.5 C 354.5,317.5 352.5,319.5 349.5,320.5C 351.167,318.167 353.167,316.167 355.5,314.5 Z"/></g>
<g><path style="opacity:1" fill="#985f5e" d="M 312.5,319.5 C 313.812,320.145 314.812,321.145 315.5,322.5C 313.814,323.857 312.148,325.19 310.5,326.5C 310.338,324.473 310.505,322.473 311,320.5C 312.107,321.712 312.607,321.379 312.5,319.5 Z"/></g>
<g><path style="opacity:1" fill="#ac7c7c" d="M 166.5,323.5 C 164.833,327.167 162.167,329.833 158.5,331.5C 160.833,328.5 163.5,325.833 166.5,323.5 Z"/></g>
<g><path style="opacity:1" fill="#a97476" d="M 264.5,334.5 C 271.779,340.442 278.779,346.775 285.5,353.5C 285.103,354.525 284.437,354.692 283.5,354C 276.964,347.631 270.631,341.131 264.5,334.5 Z"/></g>
<g><path style="opacity:1" fill="#b18484" d="M 156.5,333.5 C 156.5,335.5 155.5,336.5 153.5,336.5C 154.167,335.167 155.167,334.167 156.5,333.5 Z"/></g>
<g><path style="opacity:1" fill="#915455" d="M 94.5,353.5 C 91.4682,353.495 88.4682,353.162 85.5,352.5C 82.9633,352.435 80.9633,353.435 79.5,355.5C 78.3333,353.833 77.1667,352.167 76,350.5C 75.3292,351.252 74.4959,351.586 73.5,351.5C 74.1342,350.053 75.3009,349.387 77,349.5C 83.0341,350.537 88.8674,351.87 94.5,353.5 Z"/></g>
<g><path style="opacity:1" fill="#966060" d="M 141.5,348.5 C 139.5,352.5 136.5,355.5 132.5,357.5C 135.167,354.167 138.167,351.167 141.5,348.5 Z"/></g>
<g><path style="opacity:1" fill="#7e3b3b" d="M 94.5,353.5 C 102.231,354.511 109.898,355.844 117.5,357.5C 117.167,358.167 116.833,358.833 116.5,359.5C 95.0617,380.438 73.7283,401.605 52.5,423C 36.1053,422.767 19.7719,421.601 3.5,419.5C 3.08247,418.778 2.4158,418.278 1.5,418C 3.78992,416.223 5.45659,414.056 6.5,411.5C 11.4397,408.23 15.7731,404.23 19.5,399.5C 24.6303,393.869 29.9637,388.369 35.5,383C 40.5,382.667 45.5,382.333 50.5,382C 52.019,380.649 53.3523,379.149 54.5,377.5C 52.8554,376.304 51.1887,375.304 49.5,374.5C 48.1667,373.5 48.1667,372.5 49.5,371.5C 51.7514,368.705 54.4181,366.372 57.5,364.5C 59.0269,364.573 60.0269,363.906 60.5,362.5C 64.5149,358.487 68.8482,354.821 73.5,351.5C 74.4959,351.586 75.3292,351.252 76,350.5C 77.1667,352.167 78.3333,353.833 79.5,355.5C 80.9633,353.435 82.9633,352.435 85.5,352.5C 88.4682,353.162 91.4682,353.495 94.5,353.5 Z"/></g>
<g><path style="opacity:1" fill="#d9b9b6" d="M 117.5,357.5 C 118.757,358.623 118.424,359.289 116.5,359.5C 116.833,358.833 117.167,358.167 117.5,357.5 Z"/></g>
<g><path style="opacity:1" fill="#bc9392" d="M 60.5,362.5 C 60.0269,363.906 59.0269,364.573 57.5,364.5C 57.9731,363.094 58.9731,362.427 60.5,362.5 Z"/></g>
<g><path style="opacity:1" fill="#b1807f" d="M 428.5,365.5 C 430.587,366.585 431.92,368.251 432.5,370.5C 430.413,369.415 429.08,367.749 428.5,365.5 Z"/></g>
<g><path style="opacity:1" fill="#b68b8b" d="M 49.5,371.5 C 48.1667,372.5 48.1667,373.5 49.5,374.5C 45.69,373.754 45.69,372.754 49.5,371.5 Z"/></g>
<g><path style="opacity:1" fill="#e6ccca" d="M 151.5,387.5 C 151.167,387.5 150.833,387.5 150.5,387.5C 149.833,387.5 149.167,387.5 148.5,387.5C 150.043,385.443 151.043,385.443 151.5,387.5 Z"/></g>
<g><path style="opacity:1" fill="#ac797a" d="M 268.5,388.5 C 266.68,390.448 264.346,391.448 261.5,391.5C 263.509,389.935 265.843,388.935 268.5,388.5 Z"/></g>
<g><path style="opacity:1" fill="#7c3939" d="M 148.5,387.5 C 149.167,387.5 149.833,387.5 150.5,387.5C 150.111,390.553 150.777,393.22 152.5,395.5C 152.5,395.833 152.5,396.167 152.5,396.5C 152.625,401.794 153.625,406.794 155.5,411.5C 156.675,415.042 157.341,418.709 157.5,422.5C 157.5,425.167 157.5,427.833 157.5,430.5C 150.628,439.061 143.628,447.561 136.5,456C 135.551,456.617 134.718,456.451 134,455.5C 133.392,453.846 132.892,452.179 132.5,450.5C 132.88,448.302 132.213,446.635 130.5,445.5C 130.5,445.167 130.5,444.833 130.5,444.5C 130.587,441.402 130.087,441.068 129,443.5C 127.985,447.44 127.485,451.44 127.5,455.5C 127.5,455.833 127.5,456.167 127.5,456.5C 125.658,460.159 124.658,464.159 124.5,468.5C 122.833,468.5 121.167,468.5 119.5,468.5C 119.338,470.824 118.172,472.491 116,473.5C 115.506,475.134 115.34,476.801 115.5,478.5C 113.167,481.5 110.5,484.167 107.5,486.5C 106.833,485.833 106.167,485.167 105.5,484.5C 104.596,483.791 104.263,482.791 104.5,481.5C 103.386,476.371 102.719,476.371 102.5,481.5C 103.844,489.65 100.844,495.984 93.5,500.5C 92.1779,500.33 91.0113,500.663 90,501.5C 89.7679,500.263 89.2679,499.263 88.5,498.5C 88.5,498.167 88.5,497.833 88.5,497.5C 89.4938,494.103 89.1604,490.77 87.5,487.5C 87.5,487.167 87.5,486.833 87.5,486.5C 88.8573,481.089 88.524,475.755 86.5,470.5C 86.5,470.167 86.5,469.833 86.5,469.5C 87.4472,462.802 87.4472,456.802 86.5,451.5C 90.1667,447.167 94.1667,443.167 98.5,439.5C 104.227,434.776 109.227,429.442 113.5,423.5C 121.833,414.5 130.5,405.833 139.5,397.5C 143.234,394.769 146.234,391.436 148.5,387.5 Z"/></g>
<g><path style="opacity:1" fill="#ae7c7d" d="M 148.5,387.5 C 146.234,391.436 143.234,394.769 139.5,397.5C 141.766,393.564 144.766,390.231 148.5,387.5 Z"/></g>
<g><path style="opacity:1" fill="#b38686" d="M 150.5,387.5 C 150.833,387.5 151.167,387.5 151.5,387.5C 151.833,390.167 152.167,392.833 152.5,395.5C 150.777,393.22 150.111,390.553 150.5,387.5 Z"/></g>
<g><path style="opacity:1" fill="#bd8c8b" d="M 152.5,396.5 C 154.118,401.256 155.118,406.256 155.5,411.5C 153.625,406.794 152.625,401.794 152.5,396.5 Z"/></g>
<g><path style="opacity:1" fill="#b88888" d="M 463.5,406.5 C 464.906,406.973 465.573,407.973 465.5,409.5C 464.094,409.027 463.427,408.027 463.5,406.5 Z"/></g>
<g><path style="opacity:1" fill="#ac7879" d="M 19.5,399.5 C 15.7731,404.23 11.4397,408.23 6.5,411.5C 10.2269,406.77 14.5603,402.77 19.5,399.5 Z"/></g>
<g><path style="opacity:1" fill="#ae7879" d="M 94.5,395.5 C 87.1123,403.889 79.1123,411.556 70.5,418.5C 77.8877,410.111 85.8877,402.444 94.5,395.5 Z"/></g>
<g><path style="opacity:1" fill="#af8284" d="M 6.5,411.5 C 5.45659,414.056 3.78992,416.223 1.5,418C 2.4158,418.278 3.08247,418.778 3.5,419.5C 2.16667,419.5 0.833333,419.5 -0.5,419.5C -0.5,418.833 -0.5,418.167 -0.5,417.5C 1.83333,415.5 4.16667,413.5 6.5,411.5 Z"/></g>
<g><path style="opacity:1" fill="#935c5c" d="M 261.5,391.5 C 260.264,394.621 257.931,395.955 254.5,395.5C 254.5,411.833 254.5,428.167 254.5,444.5C 261.022,444.177 267.355,444.51 273.5,445.5C 266.5,445.5 259.5,445.5 252.5,445.5C 252.167,428.487 252.501,411.487 253.5,394.5C 256.035,393.1 258.702,392.1 261.5,391.5 Z"/></g>
<g><path style="opacity:1" fill="#c39696" d="M 390.5,419.5 C 392.027,419.427 393.027,420.094 393.5,421.5C 391.973,421.573 390.973,420.906 390.5,419.5 Z"/></g>
<g><path style="opacity:1" fill="#7d3939" d="M 510.5,427.5 C 509.703,433.484 509.037,439.484 508.5,445.5C 508.658,448.902 508.324,452.236 507.5,455.5C 506.629,460.893 505.295,466.227 503.5,471.5C 504.127,472.417 504.461,473.417 504.5,474.5C 499.722,478.729 494.722,482.729 489.5,486.5C 484.372,487.591 479.372,488.924 474.5,490.5C 473.833,490.5 473.167,490.5 472.5,490.5C 469.133,490.457 465.799,490.79 462.5,491.5C 460.97,491.64 459.97,492.307 459.5,493.5C 458.167,493.5 456.833,493.5 455.5,493.5C 451.762,492.746 448.095,492.746 444.5,493.5C 440.941,488.061 437.608,482.394 434.5,476.5C 435.188,475.145 436.188,474.145 437.5,473.5C 439.587,472.415 440.92,470.749 441.5,468.5C 449.489,458.513 457.822,448.847 466.5,439.5C 468.833,439.167 470.167,437.833 470.5,435.5C 472.749,434.92 474.415,433.587 475.5,431.5C 479.167,427.167 483.167,423.167 487.5,419.5C 489.379,419.393 489.712,419.893 488.5,421C 489.32,423.914 490.32,424.081 491.5,421.5C 490.121,420.137 490.287,419.137 492,418.5C 493.674,419.835 495.341,421.169 497,422.5C 498.113,421.289 499.28,421.289 500.5,422.5C 502.387,425.29 504.887,427.29 508,428.5C 508.671,427.748 509.504,427.414 510.5,427.5 Z"/></g>
<g><path style="opacity:1" fill="#8b5152" d="M 510.5,427.5 C 509.504,427.414 508.671,427.748 508,428.5C 504.887,427.29 502.387,425.29 500.5,422.5C 499.28,421.289 498.113,421.289 497,422.5C 495.341,421.169 493.674,419.835 492,418.5C 490.287,419.137 490.121,420.137 491.5,421.5C 490.32,424.081 489.32,423.914 488.5,421C 489.712,419.893 489.379,419.393 487.5,419.5C 488.458,418.038 489.624,416.705 491,415.5C 497.815,419.149 504.315,423.149 510.5,427.5 Z"/></g>
<g><path style="opacity:1" fill="#b58788" d="M 157.5,422.5 C 158.283,424.343 158.95,426.343 159.5,428.5C 159.145,429.522 158.478,430.189 157.5,430.5C 157.5,427.833 157.5,425.167 157.5,422.5 Z"/></g>
<g><path style="opacity:1" fill="#b68989" d="M 70.5,418.5 C 67.1667,423.833 62.8333,428.167 57.5,431.5C 61.5,426.833 65.8333,422.5 70.5,418.5 Z"/></g>
<g><path style="opacity:1" fill="#ae7979" d="M 113.5,423.5 C 109.227,429.442 104.227,434.776 98.5,439.5C 102.773,433.558 107.773,428.224 113.5,423.5 Z"/></g>
<g><path style="opacity:1" fill="#ae797b" d="M 475.5,431.5 C 474.415,433.587 472.749,434.92 470.5,435.5C 471.585,433.413 473.251,432.08 475.5,431.5 Z"/></g>
<g><path style="opacity:1" fill="#b07a7c" d="M 55.5,433.5 C 54.1667,436.833 51.8333,439.167 48.5,440.5C 50.5,437.833 52.8333,435.5 55.5,433.5 Z"/></g>
<g><path style="opacity:1" fill="#b58989" d="M 470.5,435.5 C 470.167,437.833 468.833,439.167 466.5,439.5C 467.5,437.833 468.833,436.5 470.5,435.5 Z"/></g>
<g><path style="opacity:1" fill="#b68585" d="M 510.5,427.5 C 510.833,427.5 511.167,427.5 511.5,427.5C 511.5,429.833 511.5,432.167 511.5,434.5C 510.607,438.191 509.607,441.858 508.5,445.5C 509.037,439.484 509.703,433.484 510.5,427.5 Z"/></g>
<g><path style="opacity:1" fill="#a06968" d="M 48.5,440.5 C 45.1667,445.833 40.8333,450.167 35.5,453.5C 39.5,448.833 43.8333,444.5 48.5,440.5 Z"/></g>
<g><path style="opacity:1" fill="#bb8688" d="M 130.5,444.5 C 129.393,448.142 128.393,451.809 127.5,455.5C 127.485,451.44 127.985,447.44 129,443.5C 130.087,441.068 130.587,441.402 130.5,444.5 Z"/></g>
<g><path style="opacity:1" fill="#c29696" d="M 130.5,445.5 C 132.213,446.635 132.88,448.302 132.5,450.5C 131.463,449.07 130.796,447.403 130.5,445.5 Z"/></g>
<g><path style="opacity:1" fill="#e5c2c2" d="M 35.5,453.5 C 34.1667,454.5 34.1667,455.5 35.5,456.5C 32.8333,455.5 32.8333,454.5 35.5,453.5 Z"/></g>
<g><path style="opacity:1" fill="#c09394" d="M 37.5,458.5 C 39.5,458.5 40.5,459.5 40.5,461.5C 39.1667,460.833 38.1667,459.833 37.5,458.5 Z"/></g>
<g><path style="opacity:1" fill="#8d5555" d="M 86.5,451.5 C 87.4472,456.802 87.4472,462.802 86.5,469.5C 85.716,464.566 85.0494,459.566 84.5,454.5C 84.6399,452.97 85.3065,451.97 86.5,451.5 Z"/></g>
<g><path style="opacity:1" fill="#985e5e" d="M 507.5,455.5 C 507.666,460.179 507.499,464.845 507,469.5C 506.901,471.653 506.067,473.319 504.5,474.5C 504.461,473.417 504.127,472.417 503.5,471.5C 505.295,466.227 506.629,460.893 507.5,455.5 Z"/></g>
<g><path style="opacity:1" fill="#b28583" d="M 49.5,469.5 C 50.609,469.557 51.609,469.89 52.5,470.5C 51.221,471.715 50.221,471.382 49.5,469.5 Z"/></g>
<g><path style="opacity:1" fill="#996061" d="M 127.5,456.5 C 127.098,460.912 126.265,465.246 125,469.5C 121.964,472.704 118.797,475.704 115.5,478.5C 115.34,476.801 115.506,475.134 116,473.5C 118.172,472.491 119.338,470.824 119.5,468.5C 121.167,468.5 122.833,468.5 124.5,468.5C 124.658,464.159 125.658,460.159 127.5,456.5 Z"/></g>
<g><path style="opacity:1" fill="#b6898a" d="M 441.5,468.5 C 440.92,470.749 439.587,472.415 437.5,473.5C 438.08,471.251 439.413,469.585 441.5,468.5 Z"/></g>
<g><path style="opacity:1" fill="#a06d6d" d="M 86.5,470.5 C 88.524,475.755 88.8573,481.089 87.5,486.5C 86.9022,481.187 86.5688,475.854 86.5,470.5 Z"/></g>
<g><path style="opacity:1" fill="#efb7bc" d="M 104.5,481.5 C 103.833,481.5 103.167,481.5 102.5,481.5C 102.719,476.371 103.386,476.371 104.5,481.5 Z"/></g>
<g><path style="opacity:1" fill="#c29595" d="M 105.5,484.5 C 106.167,485.167 106.833,485.833 107.5,486.5C 107.44,487.043 107.107,487.376 106.5,487.5C 105.614,486.675 105.281,485.675 105.5,484.5 Z"/></g>
<g><path style="opacity:1" fill="#9e696b" d="M 489.5,486.5 C 488.653,487.966 487.32,488.8 485.5,489C 481.83,489.548 478.163,490.048 474.5,490.5C 479.372,488.924 484.372,487.591 489.5,486.5 Z"/></g>
<g><path style="opacity:1" fill="#a97273" d="M 472.5,490.5 C 468.316,491.772 463.983,492.772 459.5,493.5C 459.97,492.307 460.97,491.64 462.5,491.5C 465.799,490.79 469.133,490.457 472.5,490.5 Z"/></g>
<g><path style="opacity:1" fill="#945f60" d="M 455.5,493.5 C 452.382,494.21 449.215,494.877 446,495.5C 444.97,495.164 444.47,494.497 444.5,493.5C 448.095,492.746 451.762,492.746 455.5,493.5 Z"/></g>
<g><path style="opacity:1" fill="#b18281" d="M 87.5,487.5 C 89.1604,490.77 89.4938,494.103 88.5,497.5C 87.6758,494.236 87.3424,490.902 87.5,487.5 Z"/></g>
<g><path style="opacity:1" fill="#a27070" d="M 88.5,498.5 C 89.2679,499.263 89.7679,500.263 90,501.5C 91.0113,500.663 92.1779,500.33 93.5,500.5C 89.6577,507.442 87.991,506.775 88.5,498.5 Z"/></g>
</svg>
