<?xml version="1.0" encoding="UTF-8"?>
<!DOCTYPE svg PUBLIC "-//W3C//DTD SVG 1.1//EN" "http://www.w3.org/Graphics/SVG/1.1/DTD/svg11.dtd">
<svg xmlns="http://www.w3.org/2000/svg" version="1.1" width="512px" height="512px" style="shape-rendering:geometricPrecision; text-rendering:geometricPrecision; image-rendering:optimizeQuality; fill-rule:evenodd; clip-rule:evenodd" xmlns:xlink="http://www.w3.org/1999/xlink">
<g><path style="opacity:1" fill="#d6d6ea" d="M 257.5,31.5 C 256.833,31.1667 256.167,30.8333 255.5,30.5C 254.34,28.7973 255.007,28.1307 257.5,28.5C 257.5,29.5 257.5,30.5 257.5,31.5 Z"/></g>
<g><path style="opacity:1" fill="#aaa8cc" d="M 255.5,30.5 C 255.573,32.0269 254.906,33.0269 253.5,33.5C 253.427,31.9731 254.094,30.9731 255.5,30.5 Z"/></g>
<g><path style="opacity:1" fill="#c6c1e7" d="M 257.5,31.5 C 258.906,31.9731 259.573,32.9731 259.5,34.5C 258.094,34.0269 257.427,33.0269 257.5,31.5 Z"/></g>
<g><path style="opacity:1" fill="#5d5d8f" d="M 255.5,30.5 C 256.167,30.8333 256.833,31.1667 257.5,31.5C 257.427,33.0269 258.094,34.0269 259.5,34.5C 261.083,36.6626 262.416,38.9959 263.5,41.5C 263.427,43.0269 264.094,44.0269 265.5,44.5C 265.427,46.0269 266.094,47.0269 267.5,47.5C 268.338,47.8417 268.672,48.5084 268.5,49.5C 268.738,51.4044 269.738,52.7377 271.5,53.5C 272.338,53.8417 272.672,54.5084 272.5,55.5C 272.427,57.0269 273.094,58.0269 274.5,58.5C 275.401,59.2905 276.068,60.2905 276.5,61.5C 276.427,63.0269 277.094,64.0269 278.5,64.5C 281.287,67.3036 283.287,70.637 284.5,74.5C 284.738,76.4044 285.738,77.7377 287.5,78.5C 288.338,78.8417 288.672,79.5084 288.5,80.5C 288.427,82.0269 289.094,83.0269 290.5,83.5C 293.547,85.9181 295.88,88.9181 297.5,92.5C 297.738,94.4044 298.738,95.7377 300.5,96.5C 300.427,98.0269 301.094,99.0269 302.5,99.5C 303.167,99.5 303.5,99.8333 303.5,100.5C 303.427,102.027 304.094,103.027 305.5,103.5C 306.906,103.973 307.573,104.973 307.5,106.5C 307.427,108.027 308.094,109.027 309.5,109.5C 310.338,109.842 310.672,110.508 310.5,111.5C 310.427,113.027 311.094,114.027 312.5,114.5C 313.338,114.842 313.672,115.508 313.5,116.5C 313.427,118.027 314.094,119.027 315.5,119.5C 316.338,119.842 316.672,120.508 316.5,121.5C 316.427,123.027 317.094,124.027 318.5,124.5C 319.737,125.965 320.737,127.632 321.5,129.5C 321.427,131.027 322.094,132.027 323.5,132.5C 323.427,134.027 324.094,135.027 325.5,135.5C 327.207,136.873 328.54,138.539 329.5,140.5C 329.427,142.027 330.094,143.027 331.5,143.5C 334.185,146.19 336.518,149.19 338.5,152.5C 338.427,154.027 339.094,155.027 340.5,155.5C 341.674,156.514 342.34,157.847 342.5,159.5C 342.427,161.027 343.094,162.027 344.5,162.5C 347,165.494 349,168.827 350.5,172.5C 350.427,174.027 351.094,175.027 352.5,175.5C 352.427,177.027 353.094,178.027 354.5,178.5C 355.338,178.842 355.672,179.508 355.5,180.5C 355.427,182.027 356.094,183.027 357.5,183.5C 360.883,187.553 363.883,191.886 366.5,196.5C 366.703,198.044 367.37,199.378 368.5,200.5C 364.353,201.167 360.353,201.834 356.5,202.5C 344.644,203.031 332.977,204.865 321.5,208C 318,210.334 315,213.168 312.5,216.5C 309.5,217.5 307.5,219.5 306.5,222.5C 303.108,225.329 301.441,228.995 301.5,233.5C 299.155,236.075 296.155,237.075 292.5,236.5C 292.5,237.5 292.5,238.5 292.5,239.5C 291.876,239.917 291.543,240.584 291.5,241.5C 292.237,243.97 293.237,246.304 294.5,248.5C 294.427,250.027 295.094,251.027 296.5,251.5C 298.104,252.287 298.771,253.62 298.5,255.5C 299.658,263.84 301.658,271.84 304.5,279.5C 310.553,285.222 316.553,290.889 322.5,296.5C 323.983,300.6 326.983,302.6 331.5,302.5C 344.409,310.74 358.409,316.573 373.5,320C 374.435,322.381 374.768,324.881 374.5,327.5C 372.518,330.373 372.185,333.373 373.5,336.5C 373.117,345.043 372.95,353.376 373,361.5C 377.143,358.181 381.643,355.514 386.5,353.5C 388.027,353.573 389.027,352.906 389.5,351.5C 391.822,349.336 394.489,347.669 397.5,346.5C 399.5,346.5 400.5,345.5 400.5,343.5C 402.749,342.92 404.415,341.587 405.5,339.5C 411.682,332.93 418.016,326.597 424.5,320.5C 426.587,319.415 427.92,317.749 428.5,315.5C 429.026,313.77 430.026,312.436 431.5,311.5C 433.262,310.738 434.262,309.404 434.5,307.5C 439.147,300.886 443.314,293.886 447,286.5C 449.081,285.667 451.248,285.667 453.5,286.5C 453.5,285.5 453.5,284.5 453.5,283.5C 454.471,282.038 454.138,280.705 452.5,279.5C 452.5,279.167 452.5,278.833 452.5,278.5C 452.598,276.447 451.931,274.78 450.5,273.5C 449.637,267.545 449.303,261.545 449.5,255.5C 450.621,252.409 450.287,249.409 448.5,246.5C 448.5,244.167 448.5,241.833 448.5,239.5C 449.645,237.047 449.312,234.713 447.5,232.5C 447.5,231.5 447.5,230.5 447.5,229.5C 447.785,226.171 447.118,223.171 445.5,220.5C 443.843,213.914 443.01,207.248 443,200.5C 448.406,194.603 453.572,188.603 458.5,182.5C 460.531,181.461 461.864,179.795 462.5,177.5C 463.906,177.027 464.573,176.027 464.5,174.5C 466.262,173.738 467.262,172.404 467.5,170.5C 468.906,170.027 469.573,169.027 469.5,167.5C 471.262,166.738 472.262,165.404 472.5,163.5C 473.433,160.63 475.1,158.296 477.5,156.5C 478.906,156.027 479.573,155.027 479.5,153.5C 481.262,152.738 482.262,151.404 482.5,149.5C 482.738,147.596 483.738,146.262 485.5,145.5C 486.906,145.027 487.573,144.027 487.5,142.5C 489.262,141.738 490.262,140.404 490.5,138.5C 490.932,137.29 491.599,136.29 492.5,135.5C 494.86,134.135 496.527,132.135 497.5,129.5C 499.4,125.268 502.067,121.601 505.5,118.5C 506.906,118.027 507.573,117.027 507.5,115.5C 508.906,115.027 509.573,114.027 509.5,112.5C 509.833,111.5 510.5,110.833 511.5,110.5C 511.5,114.833 511.5,119.167 511.5,123.5C 510.235,124.514 509.569,126.014 509.5,128C 509.508,129.707 509.842,131.207 510.5,132.5C 510.5,133.167 510.5,133.833 510.5,134.5C 509.883,134.611 509.383,134.944 509,135.5C 508.502,138.817 508.335,142.15 508.5,145.5C 508.634,147.292 508.301,148.958 507.5,150.5C 505.96,152.838 505.294,155.505 505.5,158.5C 505.5,159.167 505.5,159.833 505.5,160.5C 503.777,162.78 503.111,165.447 503.5,168.5C 503.5,174.167 503.5,179.833 503.5,185.5C 502.223,186.694 501.556,188.36 501.5,190.5C 501.507,192.369 501.84,194.036 502.5,195.5C 501.293,200.868 499.96,206.201 498.5,211.5C 496.837,213.438 496.171,215.772 496.5,218.5C 496.5,218.833 496.5,219.167 496.5,219.5C 495.59,221.019 494.757,222.685 494,224.5C 493.72,229.197 493.22,233.863 492.5,238.5C 492.543,239.416 492.876,240.083 493.5,240.5C 493.108,244.582 492.442,248.582 491.5,252.5C 490.167,255.5 490.167,258.5 491.5,261.5C 491.5,263.167 491.5,264.833 491.5,266.5C 490.252,267.334 489.585,268.667 489.5,270.5C 489.511,272.045 489.844,273.378 490.5,274.5C 490.5,275.167 490.5,275.833 490.5,276.5C 489.2,278.223 488.533,280.39 488.5,283C 488.042,287.829 487.709,292.662 487.5,297.5C 487.5,298.5 487.5,299.5 487.5,300.5C 485.882,303.171 485.215,306.171 485.5,309.5C 485.5,310.5 485.5,311.5 485.5,312.5C 483.918,315.876 483.251,319.542 483.5,323.5C 483.208,326.376 483.208,329.043 483.5,331.5C 482.414,331.62 481.747,332.287 481.5,333.5C 480.698,336.449 480.364,339.449 480.5,342.5C 480.5,343.5 480.5,344.5 480.5,345.5C 478.96,347.838 478.294,350.505 478.5,353.5C 478.5,354.5 478.5,355.5 478.5,356.5C 476.96,358.838 476.294,361.505 476.5,364.5C 476.5,365.167 476.5,365.833 476.5,366.5C 474.98,368.89 473.98,371.557 473.5,374.5C 473.598,376.553 472.931,378.22 471.5,379.5C 470.069,380.78 469.402,382.447 469.5,384.5C 468.069,385.78 467.402,387.447 467.5,389.5C 467.443,390.609 467.11,391.609 466.5,392.5C 464.896,393.287 464.229,394.62 464.5,396.5C 458.419,404.755 451.752,412.588 444.5,420C 439.938,422.78 435.272,425.28 430.5,427.5C 428.973,427.427 427.973,428.094 427.5,429.5C 416.441,437.22 405.108,444.553 393.5,451.5C 389.898,451.692 386.898,453.026 384.5,455.5C 382.574,457.293 380.241,458.293 377.5,458.5C 375.847,458.66 374.514,459.326 373.5,460.5C 371.898,462.074 369.898,462.741 367.5,462.5C 362.974,462.897 358.974,464.23 355.5,466.5C 355.167,466.5 354.833,466.5 354.5,466.5C 354.44,465.957 354.107,465.624 353.5,465.5C 347.991,467.391 342.325,468.557 336.5,469C 334.148,469.24 332.148,470.073 330.5,471.5C 329.5,471.5 328.5,471.5 327.5,471.5C 321.875,471.58 316.542,472.58 311.5,474.5C 304.233,475.894 296.9,476.894 289.5,477.5C 283.698,476.636 277.865,475.303 272,473.5C 271.235,473.57 270.735,473.903 270.5,474.5C 269.391,474.557 268.391,474.89 267.5,475.5C 265.43,475.449 263.597,476.115 262,477.5C 261.228,477.355 260.561,477.022 260,476.5C 260.355,477.959 260.189,479.293 259.5,480.5C 255.136,480.094 250.803,479.428 246.5,478.5C 245.274,478.52 244.274,478.853 243.5,479.5C 234.464,478.8 225.464,477.8 216.5,476.5C 214.883,475.028 212.883,474.361 210.5,474.5C 208.955,474.511 207.622,474.844 206.5,475.5C 203.794,475.425 201.127,475.092 198.5,474.5C 192.764,471.238 186.764,469.904 180.5,470.5C 173.069,469.245 165.735,467.578 158.5,465.5C 155.916,463.528 152.916,462.528 149.5,462.5C 141.285,460.892 133.618,457.892 126.5,453.5C 125.713,451.896 124.38,451.229 122.5,451.5C 111.733,446.617 101.066,441.45 90.5,436C 88.2368,434.383 86.2368,432.55 84.5,430.5C 83.4154,428.413 81.7488,427.08 79.5,426.5C 79.0269,425.094 78.0269,424.427 76.5,424.5C 75.5,424.167 74.8333,423.5 74.5,422.5C 73.4154,420.413 71.7488,419.08 69.5,418.5C 67.215,416.882 65.215,414.882 63.5,412.5C 63.573,410.973 62.9063,409.973 61.5,409.5C 60.5,409.167 59.8333,408.5 59.5,407.5C 59.573,405.973 58.9063,404.973 57.5,404.5C 56.1667,403.833 55.1667,402.833 54.5,401.5C 54.573,399.973 53.9063,398.973 52.5,398.5C 51.5,398.167 50.8333,397.5 50.5,396.5C 50.3404,394.847 49.6737,393.514 48.5,392.5C 46.3256,389.485 44.6589,386.151 43.5,382.5C 43.3404,380.847 42.6737,379.514 41.5,378.5C 41.5979,376.447 40.9313,374.78 39.5,373.5C 37.3455,371.383 36.3455,368.716 36.5,365.5C 36.3596,358.468 35.0262,351.802 32.5,345.5C 32.5,344.833 32.5,344.167 32.5,343.5C 32.6621,341.473 32.4955,339.473 32,337.5C 31.6174,336.944 31.1174,336.611 30.5,336.5C 30.5,334.167 30.5,331.833 30.5,329.5C 31.0356,326.302 30.369,323.635 28.5,321.5C 28.5,320.833 28.5,320.167 28.5,319.5C 29.0967,319.265 29.4301,318.765 29.5,318C 29.0463,315.97 28.3796,314.137 27.5,312.5C 27.5,311.5 27.5,310.5 27.5,309.5C 27.7062,306.505 27.0395,303.838 25.5,301.5C 25.5,300.833 25.5,300.167 25.5,299.5C 25.7062,296.505 25.0395,293.838 23.5,291.5C 23.5,290.833 23.5,290.167 23.5,289.5C 23.8294,286.772 23.1628,284.438 21.5,282.5C 21.5,272.5 21.5,262.5 21.5,252.5C 20.9973,247.828 20.8306,243.161 21,238.5C 23.9143,237.68 24.081,236.68 21.5,235.5C 20.8076,236.025 20.3076,236.692 20,237.5C 19.7216,236.584 19.2216,235.918 18.5,235.5C 16.9929,224.118 15.1596,212.784 13,201.5C 12.7645,199.881 11.9311,198.881 10.5,198.5C 10.5,198.167 10.5,197.833 10.5,197.5C 11.1524,196.551 11.4857,195.385 11.5,194C 11.1082,189.978 10.4415,186.145 9.5,182.5C 9.05775,178.846 8.72442,175.179 8.5,171.5C 9.74599,168.707 9.41266,166.04 7.5,163.5C 7.5,162.5 7.5,161.5 7.5,160.5C 7.78472,157.171 7.11805,154.171 5.5,151.5C 5.5,150.5 5.5,149.5 5.5,148.5C 5.16547,143.823 4.66547,139.156 4,134.5C 3.61742,133.944 3.11742,133.611 2.5,133.5C 2.06242,129.928 1.39575,126.428 0.5,123C 1.05596,122.617 1.38929,122.117 1.5,121.5C 1.11489,117.293 1.11489,113.293 1.5,109.5C 1.42702,111.027 2.09368,112.027 3.5,112.5C 4.16667,112.5 4.5,112.833 4.5,113.5C 4.42702,115.027 5.09368,116.027 6.5,116.5C 8.89999,118.296 10.5667,120.63 11.5,123.5C 11.8333,124.5 12.5,125.167 13.5,125.5C 15.0627,126.945 16.396,128.611 17.5,130.5C 17.427,132.027 18.0937,133.027 19.5,133.5C 22.3434,137.185 24.6767,141.185 26.5,145.5C 26.427,147.027 27.0937,148.027 28.5,148.5C 28.427,150.027 29.0937,151.027 30.5,151.5C 33.734,155.622 36.734,159.955 39.5,164.5C 39.427,166.027 40.0937,167.027 41.5,167.5C 43.0627,168.945 44.396,170.611 45.5,172.5C 45.427,174.027 46.0937,175.027 47.5,175.5C 47.427,177.027 48.0937,178.027 49.5,178.5C 51.2065,179.873 52.5398,181.539 53.5,183.5C 53.427,185.027 54.0937,186.027 55.5,186.5C 59.5484,190.254 62.8817,194.587 65.5,199.5C 65.427,201.027 66.0937,202.027 67.5,202.5C 67.5,203.5 67.5,204.5 67.5,205.5C 66.8826,205.611 66.3826,205.944 66,206.5C 65.2321,213.18 64.3988,219.847 63.5,226.5C 63.5427,227.416 63.8761,228.083 64.5,228.5C 64.5,229.167 64.5,229.833 64.5,230.5C 62.6132,231.768 61.6132,233.601 61.5,236C 61.3866,237.699 62.0532,238.866 63.5,239.5C 63.5,241.5 63.5,243.5 63.5,245.5C 62.2353,246.514 61.5687,248.014 61.5,250C 61.5085,251.707 61.8418,253.207 62.5,254.5C 62.5,255.167 62.5,255.833 62.5,256.5C 61.2057,258.048 60.5391,260.048 60.5,262.5C 60.5046,264.696 60.838,266.696 61.5,268.5C 63.6684,273.66 65.6684,278.993 67.5,284.5C 67.2291,286.38 67.8958,287.713 69.5,288.5C 70.8916,291.007 71.8916,293.673 72.5,296.5C 72.6596,298.153 73.3263,299.486 74.5,300.5C 74.427,302.027 75.0937,303.027 76.5,303.5C 86.5457,316.874 97.5457,329.54 109.5,341.5C 110.167,344.167 111.833,345.833 114.5,346.5C 121.411,350.075 128.078,354.075 134.5,358.5C 135.475,360.513 137.142,361.846 139.5,362.5C 140.107,362.376 140.44,362.043 140.5,361.5C 140.5,360.833 140.167,360.5 139.5,360.5C 140.38,349.527 140.713,338.527 140.5,327.5C 141.302,326.048 141.802,324.382 142,322.5C 142.995,321.934 143.828,321.267 144.5,320.5C 144.5,319.833 144.833,319.5 145.5,319.5C 148.092,320.403 150.426,319.736 152.5,317.5C 158.495,315.168 164.495,312.835 170.5,310.5C 172.027,310.573 173.027,309.906 173.5,308.5C 179.022,305.161 184.689,301.994 190.5,299C 196.702,292.631 203.035,286.464 209.5,280.5C 211.118,275.744 212.118,270.744 212.5,265.5C 212.5,264.5 212.5,263.5 212.5,262.5C 213.991,259.814 214.657,256.814 214.5,253.5C 214.602,249.883 213.935,246.55 212.5,243.5C 212.5,242.833 212.5,242.167 212.5,241.5C 212.603,238.781 212.269,236.115 211.5,233.5C 211.253,232.287 210.586,231.62 209.5,231.5C 209.5,231.167 209.5,230.833 209.5,230.5C 210.598,229.399 210.765,228.066 210,226.5C 206.964,223.296 203.797,220.296 200.5,217.5C 197.703,215.205 195.036,212.705 192.5,210C 186.94,207.725 181.273,205.892 175.5,204.5C 172.748,202.126 169.748,201.459 166.5,202.5C 160.5,202.5 154.5,202.5 148.5,202.5C 146.958,201.837 145.291,201.17 143.5,200.5C 144.127,199.583 144.461,198.583 144.5,197.5C 145.906,197.027 146.573,196.027 146.5,194.5C 155.17,180.492 163.837,166.492 172.5,152.5C 174.587,151.415 175.92,149.749 176.5,147.5C 177.701,145.091 179.367,143.091 181.5,141.5C 183.587,140.415 184.92,138.749 185.5,136.5C 187.802,131.193 191.802,128.193 197.5,127.5C 200.649,127.585 203.316,126.585 205.5,124.5C 206.5,123.167 207.5,121.833 208.5,120.5C 209.634,118.034 209.801,115.367 209,112.5C 209.03,109.639 208.197,107.305 206.5,105.5C 206.328,104.508 206.662,103.842 207.5,103.5C 208.906,103.027 209.573,102.027 209.5,100.5C 209.328,99.5084 209.662,98.8417 210.5,98.5C 211.906,98.0269 212.573,97.0269 212.5,95.5C 212.328,94.5084 212.662,93.8417 213.5,93.5C 214.906,93.0269 215.573,92.0269 215.5,90.5C 216.11,88.5659 217.11,86.8993 218.5,85.5C 219.906,85.0269 220.573,84.0269 220.5,82.5C 220.328,81.5084 220.662,80.8417 221.5,80.5C 222.906,80.0269 223.573,79.0269 223.5,77.5C 224.906,77.0269 225.573,76.0269 225.5,74.5C 225.328,73.5084 225.662,72.8417 226.5,72.5C 227.906,72.0269 228.573,71.0269 228.5,69.5C 230.262,68.7377 231.262,67.4044 231.5,65.5C 231.328,64.5084 231.662,63.8417 232.5,63.5C 233.906,63.0269 234.573,62.0269 234.5,60.5C 235.11,58.5659 236.11,56.8993 237.5,55.5C 238.906,55.0269 239.573,54.0269 239.5,52.5C 240.512,51.1283 241.512,49.795 242.5,48.5C 244.262,47.7377 245.262,46.4044 245.5,44.5C 247.445,40.2637 250.112,36.5971 253.5,33.5C 254.906,33.0269 255.573,32.0269 255.5,30.5 Z M 258.5,310.5 C 260.745,316.917 263.745,322.917 267.5,328.5C 267.427,330.027 268.094,331.027 269.5,331.5C 271.657,337.148 274.324,342.481 277.5,347.5C 277.427,349.027 278.094,350.027 279.5,350.5C 279.975,352.784 280.975,354.784 282.5,356.5C 282.427,358.027 283.094,359.027 284.5,359.5C 284.893,361.284 285.559,362.95 286.5,364.5C 286.427,366.027 287.094,367.027 288.5,367.5C 288.75,369.674 289.75,371.341 291.5,372.5C 291.5,372.833 291.5,373.167 291.5,373.5C 291.833,374.833 292.167,376.167 292.5,377.5C 290,380.494 288,383.827 286.5,387.5C 285.094,387.973 284.427,388.973 284.5,390.5C 283.662,390.842 283.328,391.508 283.5,392.5C 282.094,392.973 281.427,393.973 281.5,395.5C 280.662,395.842 280.328,396.508 280.5,397.5C 278.75,398.659 277.75,400.326 277.5,402.5C 276.094,402.973 275.427,403.973 275.5,405.5C 273.642,407.883 272.308,410.55 271.5,413.5C 270.094,413.973 269.427,414.973 269.5,416.5C 268.662,416.842 268.328,417.508 268.5,418.5C 267.094,418.973 266.427,419.973 266.5,421.5C 264.44,424.24 262.774,427.24 261.5,430.5C 260.094,430.973 259.427,431.973 259.5,433.5C 258.849,434.091 258.182,434.757 257.5,435.5C 256.143,433.435 254.81,431.435 253.5,429.5C 252.532,426.9 251.199,424.566 249.5,422.5C 249.672,421.508 249.338,420.842 248.5,420.5C 248.573,418.973 247.906,417.973 246.5,417.5C 244.668,413.164 242.335,409.164 239.5,405.5C 239.573,403.973 238.906,402.973 237.5,402.5C 234.272,395.602 230.606,388.936 226.5,382.5C 226.573,380.973 225.906,379.973 224.5,379.5C 224.573,377.973 223.906,376.973 222.5,376.5C 223.942,375.18 224.608,373.514 224.5,371.5C 225.906,371.027 226.573,370.027 226.5,368.5C 227.787,365.765 229.953,364.098 233,363.5C 233.758,361.231 233.591,359.064 232.5,357C 235.725,353.807 239.225,350.974 243,348.5C 243.333,344.5 243.667,340.5 244,336.5C 247.193,330.114 250.36,323.78 253.5,317.5C 254.906,317.027 255.573,316.027 255.5,314.5C 255.833,313.833 256.167,313.167 256.5,312.5C 257.167,311.833 257.833,311.167 258.5,310.5 Z"/></g>
<g><path style="opacity:1" fill="#abaacf" d="M 263.5,41.5 C 264.906,41.9731 265.573,42.9731 265.5,44.5C 264.094,44.0269 263.427,43.0269 263.5,41.5 Z"/></g>
<g><path style="opacity:1" fill="#aaaccc" d="M 245.5,44.5 C 245.262,46.4044 244.262,47.7377 242.5,48.5C 242.738,46.5956 243.738,45.2623 245.5,44.5 Z"/></g>
<g><path style="opacity:1" fill="#acacd3" d="M 265.5,44.5 C 266.906,44.9731 267.573,45.9731 267.5,47.5C 266.094,47.0269 265.427,46.0269 265.5,44.5 Z"/></g>
<g><path style="opacity:1" fill="#a7a5ca" d="M 268.5,49.5 C 270.262,50.2623 271.262,51.5956 271.5,53.5C 269.738,52.7377 268.738,51.4044 268.5,49.5 Z"/></g>
<g><path style="opacity:1" fill="#c1bfdf" d="M 239.5,52.5 C 239.573,54.0269 238.906,55.0269 237.5,55.5C 237.427,53.9731 238.094,52.9731 239.5,52.5 Z"/></g>
<g><path style="opacity:1" fill="#bab9d8" d="M 272.5,55.5 C 273.906,55.9731 274.573,56.9731 274.5,58.5C 273.094,58.0269 272.427,57.0269 272.5,55.5 Z"/></g>
<g><path style="opacity:1" fill="#adadd2" d="M 234.5,60.5 C 234.573,62.0269 233.906,63.0269 232.5,63.5C 232.427,61.9731 233.094,60.9731 234.5,60.5 Z"/></g>
<g><path style="opacity:1" fill="#c2c2e2" d="M 276.5,61.5 C 277.906,61.9731 278.573,62.9731 278.5,64.5C 277.094,64.0269 276.427,63.0269 276.5,61.5 Z"/></g>
<g><path style="opacity:1" fill="#9c9dc4" d="M 231.5,65.5 C 231.262,67.4044 230.262,68.7377 228.5,69.5C 228.738,67.5956 229.738,66.2623 231.5,65.5 Z"/></g>
<g><path style="opacity:1" fill="#c7c7e4" d="M 228.5,69.5 C 228.573,71.0269 227.906,72.0269 226.5,72.5C 226.427,70.9731 227.094,69.9731 228.5,69.5 Z"/></g>
<g><path style="opacity:1" fill="#9897bb" d="M 99.5,72.5 C 98.6873,74.2608 97.6873,75.9275 96.5,77.5C 96.6432,74.9026 97.4766,72.5692 99,70.5C 99.4643,71.0944 99.631,71.7611 99.5,72.5 Z"/></g>
<g><path style="opacity:1" fill="#9fa0c3" d="M 99.5,72.5 C 100.906,72.9731 101.573,73.9731 101.5,75.5C 100.094,75.0269 99.427,74.0269 99.5,72.5 Z"/></g>
<g><path style="opacity:1" fill="#b9b9d6" d="M 413.5,76.5 C 412.778,76.0825 412.278,75.4158 412,74.5C 411.292,75.3805 410.458,76.0472 409.5,76.5C 411.426,71.4972 412.759,71.4972 413.5,76.5 Z"/></g>
<g><path style="opacity:1" fill="#a7a6cc" d="M 225.5,74.5 C 225.573,76.0269 224.906,77.0269 223.5,77.5C 223.427,75.9731 224.094,74.9731 225.5,74.5 Z"/></g>
<g><path style="opacity:1" fill="#aeaecf" d="M 284.5,74.5 C 286.262,75.2623 287.262,76.5956 287.5,78.5C 285.738,77.7377 284.738,76.4044 284.5,74.5 Z"/></g>
<g><path style="opacity:1" fill="#a2a1c7" d="M 101.5,75.5 C 103.262,76.2623 104.262,77.5956 104.5,79.5C 102.738,78.7377 101.738,77.4044 101.5,75.5 Z"/></g>
<g><path style="opacity:1" fill="#b8b5d8" d="M 223.5,77.5 C 223.573,79.0269 222.906,80.0269 221.5,80.5C 221.427,78.9731 222.094,77.9731 223.5,77.5 Z"/></g>
<g><path style="opacity:1" fill="#5e5e90" d="M 413.5,76.5 C 414.924,78.5145 415.59,80.8478 415.5,83.5C 415.402,85.5529 416.069,87.2196 417.5,88.5C 417.5,88.8333 417.5,89.1667 417.5,89.5C 417.259,91.8984 417.926,93.8984 419.5,95.5C 419.415,98.6489 420.415,101.316 422.5,103.5C 422.5,103.833 422.5,104.167 422.5,104.5C 422.054,107.01 422.72,109.01 424.5,110.5C 424.5,110.833 424.5,111.167 424.5,111.5C 424.402,113.553 425.069,115.22 426.5,116.5C 426.5,116.833 426.5,117.167 426.5,117.5C 426.259,119.898 426.926,121.898 428.5,123.5C 429.73,125.297 430.396,127.297 430.5,129.5C 430.895,133.632 431.895,137.632 433.5,141.5C 433.137,142.183 432.804,142.85 432.5,143.5C 430.5,146.167 428.167,148.5 425.5,150.5C 422.911,151.419 420.911,153.086 419.5,155.5C 414.824,161.009 409.658,166.009 404,170.5C 400.654,167.65 397.82,164.316 395.5,160.5C 395.759,158.011 394.759,156.344 392.5,155.5C 391.5,155.167 390.833,154.5 390.5,153.5C 390.573,151.973 389.906,150.973 388.5,150.5C 384.679,146.194 381.345,141.527 378.5,136.5C 378.144,134.81 377.144,133.81 375.5,133.5C 373.6,131.381 371.934,129.047 370.5,126.5C 370.5,125.167 370.5,123.833 370.5,122.5C 370.833,121.5 371.5,120.833 372.5,120.5C 374.914,119.089 376.581,117.089 377.5,114.5C 378.701,112.091 380.367,110.091 382.5,108.5C 384.86,107.135 386.527,105.135 387.5,102.5C 394.54,93.4705 401.873,84.8038 409.5,76.5C 410.458,76.0472 411.292,75.3805 412,74.5C 412.278,75.4158 412.778,76.0825 413.5,76.5 Z"/></g>
<g><path style="opacity:1" fill="#9b9ac3" d="M 96.5,77.5 C 96.6145,81.8884 95.6145,85.8884 93.5,89.5C 93.7191,85.1998 94.7191,81.1998 96.5,77.5 Z"/></g>
<g><path style="opacity:1" fill="#5e5e90" d="M 99.5,72.5 C 99.427,74.0269 100.094,75.0269 101.5,75.5C 101.738,77.4044 102.738,78.7377 104.5,79.5C 107.409,82.981 110.075,86.6477 112.5,90.5C 112.427,92.0269 113.094,93.0269 114.5,93.5C 116.262,94.2623 117.262,95.5956 117.5,97.5C 117.427,99.0269 118.094,100.027 119.5,100.5C 120.167,100.5 120.5,100.833 120.5,101.5C 120.427,103.027 121.094,104.027 122.5,104.5C 123.974,105.436 124.974,106.77 125.5,108.5C 125.427,110.027 126.094,111.027 127.5,111.5C 130.778,115.791 134.112,120.124 137.5,124.5C 135.392,128.401 133.059,132.067 130.5,135.5C 128.241,136.344 127.241,138.011 127.5,140.5C 124.748,145.674 121.748,150.674 118.5,155.5C 117.094,155.973 116.427,156.973 116.5,158.5C 114.554,162.439 112.221,166.106 109.5,169.5C 107.833,168.833 106.167,168.167 104.5,167.5C 103.92,165.251 102.587,163.585 100.5,162.5C 93.4639,156.465 87.1305,149.798 81.5,142.5C 81.0183,141.584 80.685,140.584 80.5,139.5C 81.5856,136.58 82.2523,133.58 82.5,130.5C 82.5,130.167 82.5,129.833 82.5,129.5C 83.9238,127.485 84.5905,125.152 84.5,122.5C 84.5,122.167 84.5,121.833 84.5,121.5C 86.9555,117.266 88.2888,112.6 88.5,107.5C 88.5,106.833 88.5,106.167 88.5,105.5C 90.2798,104.01 90.9465,102.01 90.5,99.5C 90.5,99.1667 90.5,98.8333 90.5,98.5C 92.4725,95.9164 93.4725,92.9164 93.5,89.5C 95.6145,85.8884 96.6145,81.8884 96.5,77.5C 97.6873,75.9275 98.6873,74.2608 99.5,72.5 Z"/></g>
<g><path style="opacity:1" fill="#9a98c3" d="M 288.5,80.5 C 289.906,80.9731 290.573,81.9731 290.5,83.5C 289.094,83.0269 288.427,82.0269 288.5,80.5 Z"/></g>
<g><path style="opacity:1" fill="#b1b2d0" d="M 220.5,82.5 C 220.573,84.0269 219.906,85.0269 218.5,85.5C 218.427,83.9731 219.094,82.9731 220.5,82.5 Z"/></g>
<g><path style="opacity:1" fill="#bebee1" d="M 415.5,83.5 C 416.931,84.7804 417.598,86.4471 417.5,88.5C 416.069,87.2196 415.402,85.5529 415.5,83.5 Z"/></g>
<g><path style="opacity:1" fill="#a2a2c6" d="M 112.5,90.5 C 113.906,90.9731 114.573,91.9731 114.5,93.5C 113.094,93.0269 112.427,92.0269 112.5,90.5 Z"/></g>
<g><path style="opacity:1" fill="#bcb8dd" d="M 215.5,90.5 C 215.573,92.0269 214.906,93.0269 213.5,93.5C 213.427,91.9731 214.094,90.9731 215.5,90.5 Z"/></g>
<g><path style="opacity:1" fill="#ababcf" d="M 297.5,92.5 C 299.262,93.2623 300.262,94.5956 300.5,96.5C 298.738,95.7377 297.738,94.4044 297.5,92.5 Z"/></g>
<g><path style="opacity:1" fill="#a3a2c8" d="M 417.5,89.5 C 419.074,91.1016 419.741,93.1016 419.5,95.5C 417.926,93.8984 417.259,91.8984 417.5,89.5 Z"/></g>
<g><path style="opacity:1" fill="#a5a4cb" d="M 93.5,89.5 C 93.4725,92.9164 92.4725,95.9164 90.5,98.5C 90.9281,95.2154 91.9281,92.2154 93.5,89.5 Z"/></g>
<g><path style="opacity:1" fill="#b1b3d5" d="M 212.5,95.5 C 212.573,97.0269 211.906,98.0269 210.5,98.5C 210.427,96.9731 211.094,95.9731 212.5,95.5 Z"/></g>
<g><path style="opacity:1" fill="#a9a8cc" d="M 300.5,96.5 C 301.906,96.9731 302.573,97.9731 302.5,99.5C 301.094,99.0269 300.427,98.0269 300.5,96.5 Z"/></g>
<g><path style="opacity:1" fill="#a9a8cf" d="M 117.5,97.5 C 118.906,97.9731 119.573,98.9731 119.5,100.5C 118.094,100.027 117.427,99.0269 117.5,97.5 Z"/></g>
<g><path style="opacity:1" fill="#9f9ec3" d="M 303.5,100.5 C 304.906,100.973 305.573,101.973 305.5,103.5C 304.094,103.027 303.427,102.027 303.5,100.5 Z"/></g>
<g><path style="opacity:1" fill="#bcbcda" d="M 419.5,95.5 C 421.02,97.8902 422.02,100.557 422.5,103.5C 420.415,101.316 419.415,98.6489 419.5,95.5 Z"/></g>
<g><path style="opacity:1" fill="#b0b1d4" d="M 120.5,101.5 C 121.906,101.973 122.573,102.973 122.5,104.5C 121.094,104.027 120.427,103.027 120.5,101.5 Z"/></g>
<g><path style="opacity:1" fill="#acabcf" d="M 209.5,100.5 C 209.573,102.027 208.906,103.027 207.5,103.5C 207.427,101.973 208.094,100.973 209.5,100.5 Z"/></g>
<g><path style="opacity:1" fill="#aea9ce" d="M 90.5,99.5 C 90.9465,102.01 90.2798,104.01 88.5,105.5C 88.595,103.214 89.2616,101.214 90.5,99.5 Z"/></g>
<g><path style="opacity:1" fill="#9393b9" d="M 387.5,102.5 C 386.527,105.135 384.86,107.135 382.5,108.5C 383.443,105.891 385.11,103.891 387.5,102.5 Z"/></g>
<g><path style="opacity:1" fill="#b8b8d9" d="M 307.5,106.5 C 308.906,106.973 309.573,107.973 309.5,109.5C 308.094,109.027 307.427,108.027 307.5,106.5 Z"/></g>
<g><path style="opacity:1" fill="#a1a1c3" d="M 422.5,104.5 C 423.738,106.214 424.405,108.214 424.5,110.5C 422.72,109.01 422.054,107.01 422.5,104.5 Z"/></g>
<g><path style="opacity:1" fill="#a7a8cd" d="M 125.5,108.5 C 126.906,108.973 127.573,109.973 127.5,111.5C 126.094,111.027 125.427,110.027 125.5,108.5 Z"/></g>
<g><path style="opacity:1" fill="#aaa9d2" d="M 1.5,109.5 C 2.90632,109.973 3.57298,110.973 3.5,112.5C 2.09368,112.027 1.42702,111.027 1.5,109.5 Z"/></g>
<g><path style="opacity:1" fill="#a2a3c7" d="M 206.5,105.5 C 208.197,107.305 209.03,109.639 209,112.5C 209.801,115.367 209.634,118.034 208.5,120.5C 208.078,115.453 207.411,110.453 206.5,105.5 Z"/></g>
<g><path style="opacity:1" fill="#babadf" d="M 310.5,111.5 C 311.906,111.973 312.573,112.973 312.5,114.5C 311.094,114.027 310.427,113.027 310.5,111.5 Z"/></g>
<g><path style="opacity:1" fill="#b3b2d5" d="M 509.5,112.5 C 509.573,114.027 508.906,115.027 507.5,115.5C 507.427,113.973 508.094,112.973 509.5,112.5 Z"/></g>
<g><path style="opacity:1" fill="#9d9dc3" d="M -0.5,107.5 C 0.5,107.833 1.16667,108.5 1.5,109.5C 1.11489,113.293 1.11489,117.293 1.5,121.5C 0.833333,119.167 0.166667,116.833 -0.5,114.5C -0.5,112.167 -0.5,109.833 -0.5,107.5 Z"/></g>
<g><path style="opacity:1" fill="#b7b9dc" d="M 424.5,111.5 C 425.931,112.78 426.598,114.447 426.5,116.5C 425.069,115.22 424.402,113.553 424.5,111.5 Z"/></g>
<g><path style="opacity:1" fill="#aaaaca" d="M 4.5,113.5 C 5.90632,113.973 6.57298,114.973 6.5,116.5C 5.09368,116.027 4.42702,115.027 4.5,113.5 Z"/></g>
<g><path style="opacity:1" fill="#a0a0c7" d="M 88.5,107.5 C 88.2888,112.6 86.9555,117.266 84.5,121.5C 85.4673,116.62 86.8006,111.954 88.5,107.5 Z"/></g>
<g><path style="opacity:1" fill="#9e9ec5" d="M 507.5,115.5 C 507.573,117.027 506.906,118.027 505.5,118.5C 505.427,116.973 506.094,115.973 507.5,115.5 Z"/></g>
<g><path style="opacity:1" fill="#a1a0c6" d="M 377.5,114.5 C 376.581,117.089 374.914,119.089 372.5,120.5C 373.419,117.911 375.086,115.911 377.5,114.5 Z"/></g>
<g><path style="opacity:1" fill="#c6c6e6" d="M 313.5,116.5 C 314.906,116.973 315.573,117.973 315.5,119.5C 314.094,119.027 313.427,118.027 313.5,116.5 Z"/></g>
<g><path style="opacity:1" fill="#b8b7d9" d="M 426.5,117.5 C 427.391,119.291 428.391,121.124 429.5,123C 429.272,123.399 428.938,123.565 428.5,123.5C 426.926,121.898 426.259,119.898 426.5,117.5 Z"/></g>
<g><path style="opacity:1" fill="#bfbfde" d="M 11.5,123.5 C 12.8333,123.5 13.5,124.167 13.5,125.5C 12.5,125.167 11.8333,124.5 11.5,123.5 Z"/></g>
<g><path style="opacity:1" fill="#c0bfe0" d="M 316.5,121.5 C 317.906,121.973 318.573,122.973 318.5,124.5C 317.094,124.027 316.427,123.027 316.5,121.5 Z"/></g>
<g><path style="opacity:1" fill="#b5b3d2" d="M 370.5,122.5 C 370.5,123.833 370.5,125.167 370.5,126.5C 367.833,125.167 367.833,123.833 370.5,122.5 Z"/></g>
<g><path style="opacity:1" fill="#9494bd" d="M 205.5,124.5 C 203.316,126.585 200.649,127.585 197.5,127.5C 199.89,125.98 202.557,124.98 205.5,124.5 Z"/></g>
<g><path style="opacity:1" fill="#8182ae" d="M 511.5,123.5 C 511.5,125.5 511.5,127.5 511.5,129.5C 510.596,130.209 510.263,131.209 510.5,132.5C 509.842,131.207 509.508,129.707 509.5,128C 509.569,126.014 510.235,124.514 511.5,123.5 Z"/></g>
<g><path style="opacity:1" fill="#a7a6cd" d="M 84.5,122.5 C 84.5905,125.152 83.9238,127.485 82.5,129.5C 82.0618,129.565 81.7284,129.399 81.5,129C 82.4217,126.706 83.4217,124.539 84.5,122.5 Z"/></g>
<g><path style="opacity:1" fill="#bcbddb" d="M 321.5,129.5 C 322.906,129.973 323.573,130.973 323.5,132.5C 322.094,132.027 321.427,131.027 321.5,129.5 Z"/></g>
<g><path style="opacity:1" fill="#c7c2e2" d="M 17.5,130.5 C 18.9063,130.973 19.573,131.973 19.5,133.5C 18.0937,133.027 17.427,132.027 17.5,130.5 Z"/></g>
<g><path style="opacity:1" fill="#a5a5cc" d="M 430.5,129.5 C 432.336,133.208 433.669,137.208 434.5,141.5C 434.253,142.713 433.586,143.38 432.5,143.5C 432.804,142.85 433.137,142.183 433.5,141.5C 431.895,137.632 430.895,133.632 430.5,129.5 Z"/></g>
<g><path style="opacity:1" fill="#9a99c0" d="M 497.5,129.5 C 496.527,132.135 494.86,134.135 492.5,135.5C 493.443,132.891 495.11,130.891 497.5,129.5 Z"/></g>
<g><path style="opacity:1" fill="#a5a3c7" d="M 82.5,130.5 C 82.2523,133.58 81.5856,136.58 80.5,139.5C 80.685,140.584 81.0183,141.584 81.5,142.5C 80.3065,142.03 79.6399,141.03 79.5,139.5C 79.9323,136.203 80.9323,133.203 82.5,130.5 Z"/></g>
<g><path style="opacity:1" fill="#a3a2c8" d="M 323.5,132.5 C 324.906,132.973 325.573,133.973 325.5,135.5C 324.094,135.027 323.427,134.027 323.5,132.5 Z"/></g>
<g><path style="opacity:1" fill="#acadcf" d="M 375.5,133.5 C 377.144,133.81 378.144,134.81 378.5,136.5C 376.856,136.19 375.856,135.19 375.5,133.5 Z"/></g>
<g><path style="opacity:1" fill="#8685b2" d="M 510.5,134.5 C 510.354,138.387 509.687,142.054 508.5,145.5C 508.335,142.15 508.502,138.817 509,135.5C 509.383,134.944 509.883,134.611 510.5,134.5 Z"/></g>
<g><path style="opacity:1" fill="#9b99c2" d="M 130.5,135.5 C 130.25,137.674 129.25,139.341 127.5,140.5C 127.241,138.011 128.241,136.344 130.5,135.5 Z"/></g>
<g><path style="opacity:1" fill="#9999c0" d="M 185.5,136.5 C 184.92,138.749 183.587,140.415 181.5,141.5C 182.08,139.251 183.413,137.585 185.5,136.5 Z"/></g>
<g><path style="opacity:1" fill="#aaa9cc" d="M 490.5,138.5 C 490.262,140.404 489.262,141.738 487.5,142.5C 487.738,140.596 488.738,139.262 490.5,138.5 Z"/></g>
<g><path style="opacity:1" fill="#b2b2d5" d="M 329.5,140.5 C 330.906,140.973 331.573,141.973 331.5,143.5C 330.094,143.027 329.427,142.027 329.5,140.5 Z"/></g>
<g><path style="opacity:1" fill="#a6a6cc" d="M 487.5,142.5 C 487.573,144.027 486.906,145.027 485.5,145.5C 485.427,143.973 486.094,142.973 487.5,142.5 Z"/></g>
<g><path style="opacity:1" fill="#9b9bc1" d="M 2.5,133.5 C 3.11742,133.611 3.61742,133.944 4,134.5C 4.66547,139.156 5.16547,143.823 5.5,148.5C 3.93723,143.736 2.93723,138.736 2.5,133.5 Z"/></g>
<g><path style="opacity:1" fill="#aaa8cd" d="M 26.5,145.5 C 27.9063,145.973 28.573,146.973 28.5,148.5C 27.0937,148.027 26.427,147.027 26.5,145.5 Z"/></g>
<g><path style="opacity:1" fill="#b8b9d8" d="M 28.5,148.5 C 29.9063,148.973 30.573,149.973 30.5,151.5C 29.0937,151.027 28.427,150.027 28.5,148.5 Z"/></g>
<g><path style="opacity:1" fill="#999ac1" d="M 176.5,147.5 C 175.92,149.749 174.587,151.415 172.5,152.5C 173.08,150.251 174.413,148.585 176.5,147.5 Z"/></g>
<g><path style="opacity:1" fill="#9e9dc5" d="M 482.5,149.5 C 482.262,151.404 481.262,152.738 479.5,153.5C 479.738,151.596 480.738,150.262 482.5,149.5 Z"/></g>
<g><path style="opacity:1" fill="#c7c6e2" d="M 388.5,150.5 C 389.906,150.973 390.573,151.973 390.5,153.5C 389.094,153.027 388.427,152.027 388.5,150.5 Z"/></g>
<g><path style="opacity:1" fill="#d2d2eb" d="M 338.5,152.5 C 339.906,152.973 340.573,153.973 340.5,155.5C 339.094,155.027 338.427,154.027 338.5,152.5 Z"/></g>
<g><path style="opacity:1" fill="#a8a8cf" d="M 425.5,150.5 C 424.089,152.914 422.089,154.581 419.5,155.5C 420.911,153.086 422.911,151.419 425.5,150.5 Z"/></g>
<g><path style="opacity:1" fill="#a9a9ce" d="M 507.5,150.5 C 507.435,153.428 506.768,156.095 505.5,158.5C 505.294,155.505 505.96,152.838 507.5,150.5 Z"/></g>
<g><path style="opacity:1" fill="#9d99c4" d="M 479.5,153.5 C 479.573,155.027 478.906,156.027 477.5,156.5C 477.427,154.973 478.094,153.973 479.5,153.5 Z"/></g>
<g><path style="opacity:1" fill="#8a8ab3" d="M 392.5,155.5 C 394.759,156.344 395.759,158.011 395.5,160.5C 394.11,159.101 393.11,157.434 392.5,155.5 Z"/></g>
<g><path style="opacity:1" fill="#cfcfec" d="M 118.5,155.5 C 118.573,157.027 117.906,158.027 116.5,158.5C 116.427,156.973 117.094,155.973 118.5,155.5 Z"/></g>
<g><path style="opacity:1" fill="#adadcf" d="M 5.5,151.5 C 7.11805,154.171 7.78472,157.171 7.5,160.5C 6.08699,157.781 5.42032,154.781 5.5,151.5 Z"/></g>
<g><path style="opacity:1" fill="#b2b1d2" d="M 342.5,159.5 C 343.906,159.973 344.573,160.973 344.5,162.5C 343.094,162.027 342.427,161.027 342.5,159.5 Z"/></g>
<g><path style="opacity:1" fill="#aaa9ce" d="M 505.5,160.5 C 505.435,163.428 504.768,166.095 503.5,168.5C 503.111,165.447 503.777,162.78 505.5,160.5 Z"/></g>
<g><path style="opacity:1" fill="#b2b2d6" d="M 100.5,162.5 C 102.587,163.585 103.92,165.251 104.5,167.5C 102.413,166.415 101.08,164.749 100.5,162.5 Z"/></g>
<g><path style="opacity:1" fill="#9b9cc1" d="M 472.5,163.5 C 472.262,165.404 471.262,166.738 469.5,167.5C 469.738,165.596 470.738,164.262 472.5,163.5 Z"/></g>
<g><path style="opacity:1" fill="#a7a7c9" d="M 39.5,164.5 C 40.9063,164.973 41.573,165.973 41.5,167.5C 40.0937,167.027 39.427,166.027 39.5,164.5 Z"/></g>
<g><path style="opacity:1" fill="#acacd1" d="M 7.5,163.5 C 9.41266,166.04 9.74599,168.707 8.5,171.5C 7.90843,168.873 7.5751,166.206 7.5,163.5 Z"/></g>
<g><path style="opacity:1" fill="#9494b8" d="M 104.5,167.5 C 106.167,168.167 107.833,168.833 109.5,169.5C 109.631,170.376 109.298,171.043 108.5,171.5C 106.812,170.479 105.479,169.145 104.5,167.5 Z"/></g>
<g><path style="opacity:1" fill="#abaad2" d="M 469.5,167.5 C 469.573,169.027 468.906,170.027 467.5,170.5C 467.427,168.973 468.094,167.973 469.5,167.5 Z"/></g>
<g><path style="opacity:1" fill="#9f9ec6" d="M 467.5,170.5 C 467.262,172.404 466.262,173.738 464.5,174.5C 464.738,172.596 465.738,171.262 467.5,170.5 Z"/></g>
<g><path style="opacity:1" fill="#bebedb" d="M 45.5,172.5 C 46.9063,172.973 47.573,173.973 47.5,175.5C 46.0937,175.027 45.427,174.027 45.5,172.5 Z"/></g>
<g><path style="opacity:1" fill="#b9b9da" d="M 350.5,172.5 C 351.906,172.973 352.573,173.973 352.5,175.5C 351.094,175.027 350.427,174.027 350.5,172.5 Z"/></g>
<g><path style="opacity:1" fill="#adadd1" d="M 464.5,174.5 C 464.573,176.027 463.906,177.027 462.5,177.5C 462.427,175.973 463.094,174.973 464.5,174.5 Z"/></g>
<g><path style="opacity:1" fill="#a2a2ce" d="M 47.5,175.5 C 48.9063,175.973 49.573,176.973 49.5,178.5C 48.0937,178.027 47.427,177.027 47.5,175.5 Z"/></g>
<g><path style="opacity:1" fill="#cacae8" d="M 352.5,175.5 C 353.906,175.973 354.573,176.973 354.5,178.5C 353.094,178.027 352.427,177.027 352.5,175.5 Z"/></g>
<g><path style="opacity:1" fill="#9a9dbf" d="M 462.5,177.5 C 461.864,179.795 460.531,181.461 458.5,182.5C 459.124,180.246 460.457,178.579 462.5,177.5 Z"/></g>
<g><path style="opacity:1" fill="#a4a4c9" d="M 355.5,180.5 C 356.906,180.973 357.573,181.973 357.5,183.5C 356.094,183.027 355.427,182.027 355.5,180.5 Z"/></g>
<g><path style="opacity:1" fill="#a4a5cc" d="M 53.5,183.5 C 54.9063,183.973 55.573,184.973 55.5,186.5C 54.0937,186.027 53.427,185.027 53.5,183.5 Z"/></g>
<g><path style="opacity:1" fill="#8d8cb8" d="M 9.5,182.5 C 10.4415,186.145 11.1082,189.978 11.5,194C 11.4857,195.385 11.1524,196.551 10.5,197.5C 9.74595,192.537 9.41262,187.537 9.5,182.5 Z"/></g>
<g><path style="opacity:1" fill="#a1a2cb" d="M 503.5,185.5 C 503.54,188.881 503.207,192.214 502.5,195.5C 501.84,194.036 501.507,192.369 501.5,190.5C 501.556,188.36 502.223,186.694 503.5,185.5 Z"/></g>
<g><path style="opacity:1" fill="#aaa9ce" d="M 146.5,194.5 C 146.573,196.027 145.906,197.027 144.5,197.5C 144.427,195.973 145.094,194.973 146.5,194.5 Z"/></g>
<g><path style="opacity:1" fill="#a5a7c7" d="M 65.5,199.5 C 66.9063,199.973 67.573,200.973 67.5,202.5C 66.0937,202.027 65.427,201.027 65.5,199.5 Z"/></g>
<g><path style="opacity:1" fill="#9a99be" d="M 144.5,197.5 C 144.461,198.583 144.127,199.583 143.5,200.5C 145.291,201.17 146.958,201.837 148.5,202.5C 145.966,202.903 143.299,202.903 140.5,202.5C 141.612,200.581 142.946,198.914 144.5,197.5 Z"/></g>
<g><path style="opacity:1" fill="#9697be" d="M 166.5,202.5 C 169.748,201.459 172.748,202.126 175.5,204.5C 172.5,203.833 169.5,203.167 166.5,202.5 Z"/></g>
<g><path style="opacity:1" fill="#9594bb" d="M 366.5,196.5 C 369.112,198.052 370.445,200.386 370.5,203.5C 365.587,203.29 360.921,202.957 356.5,202.5C 360.353,201.834 364.353,201.167 368.5,200.5C 367.37,199.378 366.703,198.044 366.5,196.5 Z"/></g>
<g><path style="opacity:1" fill="#8f90b9" d="M 67.5,205.5 C 66.606,213.194 65.606,220.861 64.5,228.5C 63.8761,228.083 63.5427,227.416 63.5,226.5C 64.3988,219.847 65.2321,213.18 66,206.5C 66.3826,205.944 66.8826,205.611 67.5,205.5 Z"/></g>
<g><path style="opacity:1" fill="#aaacce" d="M 498.5,211.5 C 498.59,214.152 497.924,216.485 496.5,218.5C 496.171,215.772 496.837,213.438 498.5,211.5 Z"/></g>
<g><path style="opacity:1" fill="#9898bf" d="M 10.5,198.5 C 11.9311,198.881 12.7645,199.881 13,201.5C 15.1596,212.784 16.9929,224.118 18.5,235.5C 15.8401,223.261 13.1734,210.928 10.5,198.5 Z"/></g>
<g><path style="opacity:1" fill="#9d9dc6" d="M 312.5,216.5 C 310.833,218.833 308.833,220.833 306.5,222.5C 307.5,219.5 309.5,217.5 312.5,216.5 Z"/></g>
<g><path style="opacity:1" fill="#9e9ec8" d="M 200.5,217.5 C 203.797,220.296 206.964,223.296 210,226.5C 210.765,228.066 210.598,229.399 209.5,230.5C 209.649,229.448 209.483,228.448 209,227.5C 205.558,224.568 202.725,221.235 200.5,217.5 Z"/></g>
<g><path style="opacity:1" fill="#acaccf" d="M 445.5,220.5 C 447.118,223.171 447.785,226.171 447.5,229.5C 446.087,226.781 445.42,223.781 445.5,220.5 Z"/></g>
<g><path style="opacity:1" fill="#7e7eac" d="M 18.5,235.5 C 19.2216,235.918 19.7216,236.584 20,237.5C 20.3076,236.692 20.8076,236.025 21.5,235.5C 24.081,236.68 23.9143,237.68 21,238.5C 20.8306,243.161 20.9973,247.828 21.5,252.5C 19.563,246.834 18.563,241.168 18.5,235.5 Z"/></g>
<g><path style="opacity:1" fill="#8181ae" d="M 64.5,230.5 C 63.701,233.43 63.3677,236.43 63.5,239.5C 62.0532,238.866 61.3866,237.699 61.5,236C 61.6132,233.601 62.6132,231.768 64.5,230.5 Z"/></g>
<g><path style="opacity:1" fill="#a2a2ca" d="M 447.5,232.5 C 449.312,234.713 449.645,237.047 448.5,239.5C 448.007,237.194 447.674,234.861 447.5,232.5 Z"/></g>
<g><path style="opacity:1" fill="#9f9ec5" d="M 496.5,219.5 C 495.201,226.465 494.201,233.465 493.5,240.5C 492.876,240.083 492.543,239.416 492.5,238.5C 493.22,233.863 493.72,229.197 494,224.5C 494.757,222.685 495.59,221.019 496.5,219.5 Z"/></g>
<g><path style="opacity:1" fill="#8887b3" d="M 301.5,233.5 C 301.719,234.675 301.386,235.675 300.5,236.5C 297.805,237.508 295.138,238.508 292.5,239.5C 292.5,238.5 292.5,237.5 292.5,236.5C 296.155,237.075 299.155,236.075 301.5,233.5 Z"/></g>
<g><path style="opacity:1" fill="#9d9cc6" d="M 209.5,231.5 C 210.586,231.62 211.253,232.287 211.5,233.5C 212.269,236.115 212.603,238.781 212.5,241.5C 211.257,238.323 210.257,234.99 209.5,231.5 Z"/></g>
<g><path style="opacity:1" fill="#a6a5cc" d="M 212.5,243.5 C 213.935,246.55 214.602,249.883 214.5,253.5C 214.657,256.814 213.991,259.814 212.5,262.5C 213.751,256.172 213.751,249.839 212.5,243.5 Z"/></g>
<g><path style="opacity:1" fill="#afaed0" d="M 294.5,248.5 C 295.906,248.973 296.573,249.973 296.5,251.5C 295.094,251.027 294.427,250.027 294.5,248.5 Z"/></g>
<g><path style="opacity:1" fill="#abadd1" d="M 63.5,245.5 C 62.8413,248.455 62.5079,251.455 62.5,254.5C 62.5079,251.455 62.8413,248.455 63.5,245.5 Z"/></g>
<g><path style="opacity:1" fill="#9c9cc3" d="M 448.5,246.5 C 450.287,249.409 450.621,252.409 449.5,255.5C 449.037,252.518 448.704,249.518 448.5,246.5 Z"/></g>
<g><path style="opacity:1" fill="#a8a9d1" d="M 491.5,252.5 C 491.762,255.252 491.762,258.252 491.5,261.5C 490.167,258.5 490.167,255.5 491.5,252.5 Z"/></g>
<g><path style="opacity:1" fill="#8888b3" d="M 62.5,256.5 C 62.4955,260.534 62.1621,264.534 61.5,268.5C 60.838,266.696 60.5046,264.696 60.5,262.5C 60.5391,260.048 61.2057,258.048 62.5,256.5 Z"/></g>
<g><path style="opacity:1" fill="#9797c0" d="M 212.5,265.5 C 212.118,270.744 211.118,275.744 209.5,280.5C 209.421,275.169 210.421,270.169 212.5,265.5 Z"/></g>
<g><path style="opacity:1" fill="#9595c1" d="M 491.5,266.5 C 491.167,269.167 490.833,271.833 490.5,274.5C 489.844,273.378 489.511,272.045 489.5,270.5C 489.585,268.667 490.252,267.334 491.5,266.5 Z"/></g>
<g><path style="opacity:1" fill="#a7a6cb" d="M 298.5,255.5 C 301.13,263.225 303.13,271.225 304.5,279.5C 301.658,271.84 299.658,263.84 298.5,255.5 Z"/></g>
<g><path style="opacity:1" fill="#b9b8d9" d="M 450.5,273.5 C 451.931,274.78 452.598,276.447 452.5,278.5C 451.069,277.22 450.402,275.553 450.5,273.5 Z"/></g>
<g><path style="opacity:1" fill="#afacd5" d="M 452.5,279.5 C 454.138,280.705 454.471,282.038 453.5,283.5C 452.766,282.292 452.433,280.959 452.5,279.5 Z"/></g>
<g><path style="opacity:1" fill="#a9a9cc" d="M 21.5,282.5 C 23.1628,284.438 23.8294,286.772 23.5,289.5C 22.3882,287.401 21.7215,285.067 21.5,282.5 Z"/></g>
<g><path style="opacity:1" fill="#8a8ab5" d="M 490.5,276.5 C 490.291,283.749 489.291,290.749 487.5,297.5C 487.709,292.662 488.042,287.829 488.5,283C 488.533,280.39 489.2,278.223 490.5,276.5 Z"/></g>
<g><path style="opacity:1" fill="#bcbce0" d="M 67.5,284.5 C 68.6737,285.514 69.3404,286.847 69.5,288.5C 67.8958,287.713 67.2291,286.38 67.5,284.5 Z"/></g>
<g><path style="opacity:1" fill="#aeaed3" d="M 23.5,291.5 C 25.0395,293.838 25.7062,296.505 25.5,299.5C 24.2318,297.095 23.5651,294.428 23.5,291.5 Z"/></g>
<g><path style="opacity:1" fill="#dddef2" d="M 72.5,296.5 C 74.1042,297.287 74.7709,298.62 74.5,300.5C 73.3263,299.486 72.6596,298.153 72.5,296.5 Z"/></g>
<g><path style="opacity:1" fill="#7f7faa" d="M 322.5,296.5 C 325.523,298.533 328.523,300.533 331.5,302.5C 326.983,302.6 323.983,300.6 322.5,296.5 Z"/></g>
<g><path style="opacity:1" fill="#b1b1d3" d="M 74.5,300.5 C 75.9063,300.973 76.573,301.973 76.5,303.5C 75.0937,303.027 74.427,302.027 74.5,300.5 Z"/></g>
<g><path style="opacity:1" fill="#afadd2" d="M 487.5,300.5 C 487.58,303.781 486.913,306.781 485.5,309.5C 485.215,306.171 485.882,303.171 487.5,300.5 Z"/></g>
<g><path style="opacity:1" fill="#a9abcd" d="M 25.5,301.5 C 27.0395,303.838 27.7062,306.505 27.5,309.5C 26.2318,307.095 25.5651,304.428 25.5,301.5 Z"/></g>
<g><path style="opacity:1" fill="#a2a3ca" d="M 434.5,307.5 C 434.262,309.404 433.262,310.738 431.5,311.5C 431.738,309.596 432.738,308.262 434.5,307.5 Z"/></g>
<g><path style="opacity:1" fill="#aaaace" d="M 173.5,308.5 C 173.027,309.906 172.027,310.573 170.5,310.5C 170.973,309.094 171.973,308.427 173.5,308.5 Z"/></g>
<g><path style="opacity:1" fill="#b8b7e0" d="M 258.5,310.5 C 257.833,311.167 257.167,311.833 256.5,312.5C 256.281,311.325 256.614,310.325 257.5,309.5C 258.107,309.624 258.44,309.957 258.5,310.5 Z"/></g>
<g><path style="opacity:1" fill="#a7a7c8" d="M 27.5,312.5 C 28.3796,314.137 29.0463,315.97 29.5,318C 29.4301,318.765 29.0967,319.265 28.5,319.5C 27.7814,317.236 27.448,314.903 27.5,312.5 Z"/></g>
<g><path style="opacity:1" fill="#bdc1df" d="M 255.5,314.5 C 255.573,316.027 254.906,317.027 253.5,317.5C 253.427,315.973 254.094,314.973 255.5,314.5 Z"/></g>
<g><path style="opacity:1" fill="#aaabce" d="M 485.5,312.5 C 485.57,316.425 484.903,320.091 483.5,323.5C 483.251,319.542 483.918,315.876 485.5,312.5 Z"/></g>
<g><path style="opacity:1" fill="#9e9ec6" d="M 152.5,317.5 C 150.426,319.736 148.092,320.403 145.5,319.5C 147.746,318.545 150.079,317.878 152.5,317.5 Z"/></g>
<g><path style="opacity:1" fill="#9798bf" d="M 428.5,315.5 C 427.92,317.749 426.587,319.415 424.5,320.5C 425.08,318.251 426.413,316.585 428.5,315.5 Z"/></g>
<g><path style="opacity:1" fill="#8d8eb4" d="M 144.5,320.5 C 143.828,321.267 142.995,321.934 142,322.5C 141.802,324.382 141.302,326.048 140.5,327.5C 140.338,325.473 140.505,323.473 141,321.5C 142.011,320.663 143.178,320.33 144.5,320.5 Z"/></g>
<g><path style="opacity:1" fill="#a6a3ca" d="M 28.5,321.5 C 30.369,323.635 31.0356,326.302 30.5,329.5C 29.6295,326.997 28.9628,324.33 28.5,321.5 Z"/></g>
<g><path style="opacity:1" fill="#c1c1db" d="M 267.5,328.5 C 268.906,328.973 269.573,329.973 269.5,331.5C 268.094,331.027 267.427,330.027 267.5,328.5 Z"/></g>
<g><path style="opacity:1" fill="#9495bc" d="M 374.5,327.5 C 374.296,330.518 373.963,333.518 373.5,336.5C 372.185,333.373 372.518,330.373 374.5,327.5 Z"/></g>
<g><path style="opacity:1" fill="#9c9dc4" d="M 483.5,331.5 C 482.813,335.336 481.813,339.002 480.5,342.5C 480.364,339.449 480.698,336.449 481.5,333.5C 481.747,332.287 482.414,331.62 483.5,331.5 Z"/></g>
<g><path style="opacity:1" fill="#9b9ec4" d="M 30.5,336.5 C 31.1174,336.611 31.6174,336.944 32,337.5C 32.4955,339.473 32.6621,341.473 32.5,343.5C 31.5933,341.343 30.9267,339.01 30.5,336.5 Z"/></g>
<g><path style="opacity:1" fill="#9999c3" d="M 109.5,341.5 C 111.5,342.833 113.167,344.5 114.5,346.5C 111.833,345.833 110.167,344.167 109.5,341.5 Z"/></g>
<g><path style="opacity:1" fill="#9597c0" d="M 405.5,339.5 C 404.415,341.587 402.749,342.92 400.5,343.5C 401.585,341.413 403.251,340.08 405.5,339.5 Z"/></g>
<g><path style="opacity:1" fill="#a1a2c6" d="M 400.5,343.5 C 400.5,345.5 399.5,346.5 397.5,346.5C 398.167,345.167 399.167,344.167 400.5,343.5 Z"/></g>
<g><path style="opacity:1" fill="#d8d8ee" d="M 277.5,347.5 C 278.906,347.973 279.573,348.973 279.5,350.5C 278.094,350.027 277.427,349.027 277.5,347.5 Z"/></g>
<g><path style="opacity:1" fill="#a4a4cd" d="M 480.5,345.5 C 480.435,348.428 479.768,351.095 478.5,353.5C 478.294,350.505 478.96,347.838 480.5,345.5 Z"/></g>
<g><path style="opacity:1" fill="#a5a4ca" d="M 389.5,351.5 C 389.027,352.906 388.027,353.573 386.5,353.5C 386.973,352.094 387.973,351.427 389.5,351.5 Z"/></g>
<g><path style="opacity:1" fill="#9898c1" d="M 32.5,345.5 C 35.0262,351.802 36.3596,358.468 36.5,365.5C 34.7142,359.047 33.3808,352.38 32.5,345.5 Z"/></g>
<g><path style="opacity:1" fill="#c1c1dd" d="M 282.5,356.5 C 283.906,356.973 284.573,357.973 284.5,359.5C 283.094,359.027 282.427,358.027 282.5,356.5 Z"/></g>
<g><path style="opacity:1" fill="#979bc4" d="M 134.5,358.5 C 136.05,359.441 137.716,360.107 139.5,360.5C 140.167,360.5 140.5,360.833 140.5,361.5C 140.44,362.043 140.107,362.376 139.5,362.5C 137.142,361.846 135.475,360.513 134.5,358.5 Z"/></g>
<g><path style="opacity:1" fill="#afb0d4" d="M 478.5,356.5 C 478.435,359.428 477.768,362.095 476.5,364.5C 476.294,361.505 476.96,358.838 478.5,356.5 Z"/></g>
<g><path style="opacity:1" fill="#dee2f0" d="M 286.5,364.5 C 287.906,364.973 288.573,365.973 288.5,367.5C 287.094,367.027 286.427,366.027 286.5,364.5 Z"/></g>
<g><path style="opacity:1" fill="#b0b1d2" d="M 288.5,367.5 C 290.25,368.659 291.25,370.326 291.5,372.5C 289.75,371.341 288.75,369.674 288.5,367.5 Z"/></g>
<g><path style="opacity:1" fill="#b7b8d5" d="M 476.5,366.5 C 476.585,369.649 475.585,372.316 473.5,374.5C 473.98,371.557 474.98,368.89 476.5,366.5 Z"/></g>
<g><path style="opacity:1" fill="#cacbe6" d="M 226.5,368.5 C 226.573,370.027 225.906,371.027 224.5,371.5C 224.427,369.973 225.094,368.973 226.5,368.5 Z"/></g>
<g><path style="opacity:1" fill="#a2a4cb" d="M 39.5,373.5 C 40.9313,374.78 41.5979,376.447 41.5,378.5C 40.0687,377.22 39.4021,375.553 39.5,373.5 Z"/></g>
<g><path style="opacity:1" fill="#b2b1d3" d="M 291.5,373.5 C 293.519,374.538 293.853,375.872 292.5,377.5C 292.167,376.167 291.833,374.833 291.5,373.5 Z"/></g>
<g><path style="opacity:1" fill="#b3afd4" d="M 222.5,376.5 C 223.906,376.973 224.573,377.973 224.5,379.5C 223.094,379.027 222.427,378.027 222.5,376.5 Z"/></g>
<g><path style="opacity:1" fill="#dad9ed" d="M 41.5,378.5 C 42.6737,379.514 43.3404,380.847 43.5,382.5C 41.8958,381.713 41.2291,380.38 41.5,378.5 Z"/></g>
<g><path style="opacity:1" fill="#d2d2ec" d="M 224.5,379.5 C 225.906,379.973 226.573,380.973 226.5,382.5C 225.094,382.027 224.427,381.027 224.5,379.5 Z"/></g>
<g><path style="opacity:1" fill="#aeaed2" d="M 471.5,379.5 C 471.598,381.553 470.931,383.22 469.5,384.5C 469.402,382.447 470.069,380.78 471.5,379.5 Z"/></g>
<g><path style="opacity:1" fill="#b3b3d7" d="M 469.5,384.5 C 469.598,386.553 468.931,388.22 467.5,389.5C 467.402,387.447 468.069,385.78 469.5,384.5 Z"/></g>
<g><path style="opacity:1" fill="#a9acce" d="M 286.5,387.5 C 286.573,389.027 285.906,390.027 284.5,390.5C 284.427,388.973 285.094,387.973 286.5,387.5 Z"/></g>
<g><path style="opacity:1" fill="#aeacd0" d="M 48.5,392.5 C 49.6737,393.514 50.3404,394.847 50.5,396.5C 48.8958,395.713 48.2291,394.38 48.5,392.5 Z"/></g>
<g><path style="opacity:1" fill="#b3b6d8" d="M 283.5,392.5 C 283.573,394.027 282.906,395.027 281.5,395.5C 281.427,393.973 282.094,392.973 283.5,392.5 Z"/></g>
<g><path style="opacity:1" fill="#aeacd2" d="M 466.5,392.5 C 466.34,394.153 465.674,395.486 464.5,396.5C 464.229,394.62 464.896,393.287 466.5,392.5 Z"/></g>
<g><path style="opacity:1" fill="#bbbbdb" d="M 52.5,398.5 C 53.9063,398.973 54.573,399.973 54.5,401.5C 53.0937,401.027 52.427,400.027 52.5,398.5 Z"/></g>
<g><path style="opacity:1" fill="#9695bb" d="M 280.5,397.5 C 280.408,399.848 279.408,401.514 277.5,402.5C 277.75,400.326 278.75,398.659 280.5,397.5 Z"/></g>
<g><path style="opacity:1" fill="#abaad0" d="M 237.5,402.5 C 238.906,402.973 239.573,403.973 239.5,405.5C 238.094,405.027 237.427,404.027 237.5,402.5 Z"/></g>
<g><path style="opacity:1" fill="#c7c6e8" d="M 277.5,402.5 C 277.573,404.027 276.906,405.027 275.5,405.5C 275.427,403.973 276.094,402.973 277.5,402.5 Z"/></g>
<g><path style="opacity:1" fill="#b4afd4" d="M 57.5,404.5 C 58.9063,404.973 59.573,405.973 59.5,407.5C 58.0937,407.027 57.427,406.027 57.5,404.5 Z"/></g>
<g><path style="opacity:1" fill="#c0c0de" d="M 61.5,409.5 C 62.9063,409.973 63.573,410.973 63.5,412.5C 62.0937,412.027 61.427,411.027 61.5,409.5 Z"/></g>
<g><path style="opacity:1" fill="#a4a5c8" d="M 271.5,413.5 C 271.573,415.027 270.906,416.027 269.5,416.5C 269.427,414.973 270.094,413.973 271.5,413.5 Z"/></g>
<g><path style="opacity:1" fill="#9192bc" d="M 69.5,418.5 C 71.7488,419.08 73.4154,420.413 74.5,422.5C 72.2512,421.92 70.5846,420.587 69.5,418.5 Z"/></g>
<g><path style="opacity:1" fill="#c6c9e7" d="M 246.5,417.5 C 247.906,417.973 248.573,418.973 248.5,420.5C 247.094,420.027 246.427,419.027 246.5,417.5 Z"/></g>
<g><path style="opacity:1" fill="#ababd0" d="M 268.5,418.5 C 268.573,420.027 267.906,421.027 266.5,421.5C 266.427,419.973 267.094,418.973 268.5,418.5 Z"/></g>
<g><path style="opacity:1" fill="#b0b0d4" d="M 76.5,424.5 C 78.0269,424.427 79.0269,425.094 79.5,426.5C 77.9731,426.573 76.9731,425.906 76.5,424.5 Z"/></g>
<g><path style="opacity:1" fill="#9798bf" d="M 79.5,426.5 C 81.7488,427.08 83.4154,428.413 84.5,430.5C 82.2512,429.92 80.5846,428.587 79.5,426.5 Z"/></g>
<g><path style="opacity:1" fill="#ababce" d="M 249.5,422.5 C 251.199,424.566 252.532,426.9 253.5,429.5C 251.058,427.879 249.725,425.546 249.5,422.5 Z"/></g>
<g><path style="opacity:1" fill="#c4c4df" d="M 430.5,427.5 C 430.027,428.906 429.027,429.573 427.5,429.5C 427.973,428.094 428.973,427.427 430.5,427.5 Z"/></g>
<g><path style="opacity:1" fill="#b2b1d4" d="M 261.5,430.5 C 261.573,432.027 260.906,433.027 259.5,433.5C 259.427,431.973 260.094,430.973 261.5,430.5 Z"/></g>
<g><path style="opacity:1" fill="#bfbfe1" d="M 122.5,451.5 C 124.38,451.229 125.713,451.896 126.5,453.5C 124.847,453.34 123.514,452.674 122.5,451.5 Z"/></g>
<g><path style="opacity:1" fill="#8c8fb8" d="M 393.5,451.5 C 390.744,453.204 387.744,454.537 384.5,455.5C 386.898,453.026 389.898,451.692 393.5,451.5 Z"/></g>
<g><path style="opacity:1" fill="#abadd1" d="M 377.5,458.5 C 376.713,460.104 375.38,460.771 373.5,460.5C 374.514,459.326 375.847,458.66 377.5,458.5 Z"/></g>
<g><path style="opacity:1" fill="#9596c1" d="M 149.5,462.5 C 152.916,462.528 155.916,463.528 158.5,465.5C 155.215,465.072 152.215,464.072 149.5,462.5 Z"/></g>
<g><path style="opacity:1" fill="#8e8eba" d="M 367.5,462.5 C 363.764,464.412 359.764,465.745 355.5,466.5C 358.974,464.23 362.974,462.897 367.5,462.5 Z"/></g>
<g><path style="opacity:1" fill="#8383af" d="M 354.5,466.5 C 346.691,468.929 338.691,470.595 330.5,471.5C 332.148,470.073 334.148,469.24 336.5,469C 342.325,468.557 347.991,467.391 353.5,465.5C 354.107,465.624 354.44,465.957 354.5,466.5 Z"/></g>
<g><path style="opacity:1" fill="#8a8ab4" d="M 180.5,470.5 C 186.764,469.904 192.764,471.238 198.5,474.5C 192.406,473.476 186.406,472.142 180.5,470.5 Z"/></g>
<g><path style="opacity:1" fill="#9190ba" d="M 327.5,471.5 C 322.428,473.246 317.095,474.246 311.5,474.5C 316.542,472.58 321.875,471.58 327.5,471.5 Z"/></g>
<g><path style="opacity:1" fill="#8081ac" d="M 206.5,475.5 C 207.622,474.844 208.955,474.511 210.5,474.5C 212.883,474.361 214.883,475.028 216.5,476.5C 213.098,476.658 209.764,476.324 206.5,475.5 Z"/></g>
<g><path style="opacity:1" fill="#cacae9" d="M 270.5,474.5 C 270.027,475.906 269.027,476.573 267.5,476.5C 267.5,476.167 267.5,475.833 267.5,475.5C 268.391,474.89 269.391,474.557 270.5,474.5 Z"/></g>
<g><path style="opacity:1" fill="#807fad" d="M 267.5,475.5 C 267.5,475.833 267.5,476.167 267.5,476.5C 264.926,478.024 262.259,479.358 259.5,480.5C 260.189,479.293 260.355,477.959 260,476.5C 260.561,477.022 261.228,477.355 262,477.5C 263.597,476.115 265.43,475.449 267.5,475.5 Z"/></g>
<g><path style="opacity:1" fill="#9191bb" d="M 270.5,474.5 C 270.735,473.903 271.235,473.57 272,473.5C 277.865,475.303 283.698,476.636 289.5,477.5C 283.089,477.689 276.756,476.689 270.5,474.5 Z"/></g>
<g><path style="opacity:1" fill="#9190b3" d="M 243.5,479.5 C 244.274,478.853 245.274,478.52 246.5,478.5C 250.803,479.428 255.136,480.094 259.5,480.5C 254.247,481.52 248.913,481.187 243.5,479.5 Z"/></g>
</svg>
