<?xml version="1.0" encoding="UTF-8"?>
<svg version="1.1" xmlns="http://www.w3.org/2000/svg" width="512" height="512">
<path d="M0 0 C0.99 0.33 1.98 0.66 3 1 C4.0532349 3.43282428 4.9027827 5.73226655 5.6875 8.25 C6.02491211 9.25353516 6.02491211 9.25353516 6.36914062 10.27734375 C7.5549618 13.94654119 8.27663837 17.14201627 8 21 C8.66 21 9.32 21 10 21 C11.54667615 26.96575085 12.8262229 32.95064274 14 39 C14.58338135 38.98042236 15.1667627 38.96084473 15.76782227 38.94067383 C22.64333691 38.8130619 29.16249548 39.56334407 35.9375 40.6875 C37.03215576 40.86756592 38.12681152 41.04763184 39.25463867 41.2331543 C74.81320246 47.30526735 108.80260946 61.26149293 137 84 C137.99902344 84.79664062 138.99804688 85.59328125 140.02734375 86.4140625 C144.20901487 89.78797323 148.25409295 93.14136889 152 97 C155.49833143 95.46073417 158.3821403 93.31392894 161.4140625 91.0234375 C163 90 163 90 165 90 C163.68139111 94.61513112 161.78644563 98.09897612 159 102 C160.45506508 105.40273032 162.30322768 107.42853861 165 109.9375 C201.07269899 145.31760317 216.56358705 196.21633585 222 245 C229.64371299 248.14164092 229.64371299 248.14164092 237.5 250.6875 C239.80909964 251.34150132 241.85376973 251.92688486 244 253 C243.9375 254.8125 243.9375 254.8125 243 257 C237.60011379 259.94539248 231.5756369 261.40488118 225.6953125 263.1328125 C223.10930659 263.73850865 223.10930659 263.73850865 222 265 C221.82012093 266.373434 221.69996868 267.75478272 221.60546875 269.13671875 C221.5394043 270.01279785 221.47333984 270.88887695 221.40527344 271.79150391 C221.3334082 272.74718262 221.26154297 273.70286133 221.1875 274.6875 C219.60547093 293.38781662 215.99098592 311.21615165 210 329 C209.76023437 329.71381836 209.52046875 330.42763672 209.2734375 331.16308594 C205.71727853 341.56289698 201.11468764 351.28475738 196 361 C195.484375 361.99902344 194.96875 362.99804688 194.4375 364.02734375 C186.56846727 378.93146281 176.36550154 392.55037675 164.91015625 404.87890625 C163.14035743 406.84414298 161.54906423 408.85850368 160 411 C160.3609375 411.48210937 160.721875 411.96421875 161.09375 412.4609375 C161.5578125 413.09257812 162.021875 413.72421875 162.5 414.375 C162.9640625 415.00148438 163.428125 415.62796875 163.90625 416.2734375 C165 418 165 418 165 420 C161.17902761 419.46930939 158.93828597 418.50298434 156 416 C153.08300233 417.30480756 151.20060053 418.64071666 149.0625 421 C122.82467246 447.90630722 83.68956905 464.67971724 47.5625 472.4375 C46.80001953 472.6015332 46.03753906 472.76556641 45.25195312 472.93457031 C40.75148672 473.83345703 36.58806375 474.15112199 32 474 C32 473.67 32 473.34 32 473 C32.64324219 472.87471924 33.28648437 472.74943848 33.94921875 472.62036133 C46.86547824 470.08110026 59.6041647 467.51133906 72 463 C72.76199707 462.72317383 73.52399414 462.44634766 74.30908203 462.16113281 C101.98807615 451.93422266 132.67130629 435.89425595 151 412 C148.54221364 409.99932709 146.08374672 407.99949254 143.625 406 C142.52224731 405.1030542 142.52224731 405.1030542 141.3972168 404.18798828 C137.55163456 401.06300366 133.69569922 397.95322426 129.8125 394.875 C124.35462574 390.51963457 119.03620937 386.00260781 113.72509766 381.47070312 C111.97952584 379.9825451 110.23016685 378.49892806 108.48046875 377.015625 C102.88458261 372.25850447 97.36789725 367.4509388 92 362.4375 C86.24313129 357.08985564 80.16595855 352.22963192 73.92089844 347.46630859 C72.57215447 346.43675137 71.22673381 345.40283296 69.88378906 344.36572266 C67.71979978 342.69469032 65.54861533 341.03348536 63.375 339.375 C62.36228027 338.59298218 62.36228027 338.59298218 61.32910156 337.79516602 C60.69198242 337.31362061 60.05486328 336.8320752 59.3984375 336.3359375 C58.83817871 335.90845215 58.27791992 335.4809668 57.70068359 335.04052734 C55.82238886 333.89133237 54.14988742 333.42574935 52 333 C51.83564453 333.92619141 51.83564453 333.92619141 51.66796875 334.87109375 C51.50941406 335.71800781 51.35085938 336.56492187 51.1875 337.4375 C51.03667969 338.26121094 50.88585937 339.08492188 50.73046875 339.93359375 C49.95416766 343.19239778 48.92117358 346.28690621 47.84057617 349.45483398 C46.2739792 354.19830579 44.93871567 359.01107007 43.5625 363.8125 C39.94804227 376.35289941 39.94804227 376.35289941 37.8125 382.4375 C35.49878759 389.15122106 34.02812065 396.06147013 32.46142578 402.97851562 C31.79251169 405.9089964 31.09047698 408.83056628 30.375 411.75 C30.15585937 412.65234375 29.93671875 413.5546875 29.7109375 414.484375 C29 417 29 417 28.03515625 419.3203125 C26.67522221 422.84074552 25.88421836 426.45153153 25.0625 430.125 C23.02837993 438.97640113 20.83936914 447.72201577 17.89453125 456.3203125 C16.64891911 460.05170956 15.48210569 463.8066931 14.3125 467.5625 C14.08578613 468.29041748 13.85907227 469.01833496 13.62548828 469.76831055 C13.08298902 471.51199877 12.54139838 473.25596965 12 475 C15.96 475 19.92 475 24 475 C24 475.33 24 475.66 24 476 C19.71 476 15.42 476 11 476 C10.67 478.64 10.34 481.28 10 484 C9.34 484 8.68 484 8 484 C7.8453125 485.2065625 7.8453125 485.2065625 7.6875 486.4375 C6.72181579 491.44149997 5.28640063 496.42719873 3 501 C0.6875 500.875 0.6875 500.875 -2 500 C-4.82020008 495.76969987 -6.00125699 490.93096275 -7.3515625 486.07421875 C-7.81421261 484.03115006 -7.81421261 484.03115006 -9 483 C-9.04063832 481.33382885 -9.042721 479.66611905 -9 478 C-9.99 478 -10.98 478 -12 478 C-12 477.34 -12 476.68 -12 476 C-14.31 476 -16.62 476 -19 476 C-19 475.67 -19 475.34 -19 475 C-16.36 475 -13.72 475 -11 475 C-11.2165625 474.40832031 -11.433125 473.81664062 -11.65625 473.20703125 C-14.42179262 465.35852373 -14.42179262 465.35852373 -14 461 C-14.66 461 -15.32 461 -16 461 C-16.2475 459.80375 -16.495 458.6075 -16.75 457.375 C-17.59343856 453.5352902 -18.65700051 449.81904287 -19.8125 446.0625 C-21.81996483 439.1999443 -23.14236955 432.27847031 -24.4375 425.25 C-25.89661995 417.37345954 -27.45829904 409.59020662 -29.625 401.875 C-29.81892334 401.18438477 -30.01284668 400.49376953 -30.21264648 399.78222656 C-31.16614267 396.51101983 -32.23944881 393.31122456 -33.4609375 390.1328125 C-35.55482454 384.66418199 -37.11541371 379.04076536 -38.75 373.421875 C-40.10406914 368.82368189 -41.58838418 364.33911292 -43.3125 359.8671875 C-44.38324717 356.95913553 -45.18503389 353.98820906 -46 351 C-47.43419642 345.87315991 -49.04008449 340.94645344 -51 336 C-51.33 335.01 -51.66 334.02 -52 333 C-70.58301844 345.89112538 -88.06112035 359.64032881 -104.5625 375.125 C-109.33706095 379.59410541 -114.29352788 383.70946128 -119.47094727 387.70214844 C-124.39314303 391.49925141 -129.20776377 395.41533964 -134 399.375 C-134.70608398 399.95813965 -135.41216797 400.5412793 -136.13964844 401.14208984 C-140.10096829 404.41863218 -144.05275694 407.70651907 -148 411 C-115.65849335 445.3663662 -73.10801588 465.06659352 -27 473 C-27 473.33 -27 473.66 -27 474 C-64.06608091 473.25597283 -103.59476928 453.87390468 -132 431 C-133.42892578 429.87464844 -133.42892578 429.87464844 -134.88671875 428.7265625 C-140.62173501 424.14167911 -145.94021333 419.32074988 -151 414 C-151.77085937 414.5053125 -152.54171875 415.010625 -153.3359375 415.53125 C-154.33882813 416.1809375 -155.34171875 416.830625 -156.375 417.5 C-157.37273437 418.1496875 -158.37046875 418.799375 -159.3984375 419.46875 C-162 421 -162 421 -164 421 C-162.44298069 416.32894208 -159.91552627 412.91294315 -157 409 C-157.36641602 408.57589844 -157.73283203 408.15179688 -158.11035156 407.71484375 C-186.69406643 374.51614492 -206.42300563 337.50597549 -214 294 C-214.11714355 293.33419922 -214.23428711 292.66839844 -214.35498047 291.98242188 C-216.00221016 282.28016554 -216.23182047 272.80085445 -216 263 C-217.08796875 262.86207031 -218.1759375 262.72414063 -219.296875 262.58203125 C-222.53969239 262.07234793 -224.99853178 261.26598188 -227.95703125 259.8984375 C-232.20849631 258.02876835 -236.62671915 256.55793188 -241 255 C-241 253.68 -241 252.36 -241 251 C-240.44054687 250.84144531 -239.88109375 250.68289062 -239.3046875 250.51953125 C-231.7514882 248.32157454 -224.3880749 245.69334719 -217 243 C-216.90501221 242.2565332 -216.81002441 241.51306641 -216.7121582 240.74707031 C-211.128259 197.73282005 -198.59380144 157.24230794 -171 123 C-170.2265625 122.02417969 -169.453125 121.04835938 -168.65625 120.04296875 C-165.40505229 115.9952276 -162.22751924 112.11273104 -158.375 108.625 C-155.78003764 106.29372381 -155.78003764 106.29372381 -155.8125 103.625 C-157.23272135 100.48556334 -158.9924533 97.70503966 -160.94140625 94.8671875 C-162 93 -162 93 -162 90 C-158.96147295 91.40976705 -156.4060405 93.08870228 -153.75 95.125 C-153.04359375 95.66382812 -152.3371875 96.20265625 -151.609375 96.7578125 C-151.07828125 97.16773437 -150.5471875 97.57765625 -150 98 C-146.44059993 96.48034746 -144.14091653 94.37 -141.375 91.6875 C-108.50388834 61.03725628 -57.50134061 38.30708618 -12 39 C-11.81824219 38.14277344 -11.63648438 37.28554688 -11.44921875 36.40234375 C-11.07216797 34.68724609 -11.07216797 34.68724609 -10.6875 32.9375 C-10.44386719 31.81214844 -10.20023438 30.68679687 -9.94921875 29.52734375 C-9.13314329 26.49476705 -8.09147551 23.79680979 -6.80932617 20.93920898 C-5.19827097 17.07899436 -4.04266781 13.05674858 -2.8125 9.0625 C-2.53986328 8.18787109 -2.26722656 7.31324219 -1.98632812 6.41210938 C-1.32090311 4.27574484 -0.65887646 2.13839138 0 0 Z M19 56 C20.7488248 65.07900532 22.6799503 74.04776634 25 83 C25.48102188 84.91620191 25.9601549 86.83287886 26.4375 88.75 C26.68242187 89.72710937 26.92734375 90.70421875 27.1796875 91.7109375 C27.7938379 94.17338815 28.40275173 96.63687991 29.0078125 99.1015625 C29.18256104 99.80958008 29.35730957 100.51759766 29.53735352 101.24707031 C29.8783352 102.62875157 30.2174731 104.01088963 30.55444336 105.39355469 C31.25157187 108.21039288 31.99387172 110.98166754 32.9140625 113.734375 C34.57400618 118.72614809 35.91478333 123.80453961 37.3125 128.875 C39.6896009 137.4393638 42.17662846 145.94614655 44.875 154.4140625 C47.08617614 161.46218643 49.08924034 168.57655163 50.98828125 175.71484375 C51.85907837 179.09762361 51.85907837 179.09762361 54 182 C74.20364118 167.0386892 74.20364118 167.0386892 93.20703125 150.61328125 C95.75550788 148.22876256 98.33534321 145.88809907 100.9375 143.5625 C103.69052049 141.09625248 106.42389476 138.61268261 109.125 136.08984375 C115.88162621 129.78191935 122.78002265 123.78012534 130 118 C132.06645599 116.31728639 134.12672195 114.62718009 136.1875 112.9375 C137.79166667 111.625 139.39583333 110.3125 141 109 C139.9168309 105.7504927 139.35349249 105.21960047 136.74609375 103.21484375 C136.06498535 102.68930908 135.38387695 102.16377441 134.68212891 101.62231445 C133.94140137 101.06632568 133.20067383 100.51033691 132.4375 99.9375 C131.67099121 99.35895264 130.90448242 98.78040527 130.11474609 98.18432617 C99.74256856 75.55964369 57.88757221 54.61937613 19 56 Z M-132 104 C-133.66460318 105.33590861 -135.33076958 106.66987769 -137 108 C-135.48147523 111.83945182 -133.22197262 113.67491055 -130 116.1875 C-126.22448968 119.19119376 -122.55939005 122.24292994 -119 125.5 C-115.59204994 128.61137213 -112.10477712 131.55671604 -108.5 134.4375 C-94.6972189 145.6055622 -94.6972189 145.6055622 -92 151 C-91.34 151 -90.68 151 -90 151 C-90 151.66 -90 152.32 -90 153 C-88.03648244 154.86493195 -88.03648244 154.86493195 -85.4375 156.875 C-84.4371875 157.67421875 -83.436875 158.4734375 -82.40625 159.296875 C-81.85839844 159.73064453 -81.31054688 160.16441406 -80.74609375 160.61132812 C-78.91479168 162.06776634 -77.09711784 163.53999741 -75.28125 165.015625 C-64.4853302 175.34612523 -64.4853302 175.34612523 -52 181 C-51.90203125 180.39414063 -51.8040625 179.78828125 -51.703125 179.1640625 C-50.71406294 173.62190441 -49.25055 168.67997206 -47 163.51953125 C-45.76286724 160.4025366 -44.9121266 157.22673359 -44 154 C-43.57944578 152.73390872 -43.14959642 151.47087057 -42.7109375 150.2109375 C-42.49179688 149.57929688 -42.27265625 148.94765625 -42.046875 148.296875 C-41.59567098 147.00622163 -41.13987081 145.71716664 -40.6796875 144.4296875 C-39.44194498 140.83434017 -38.72288967 137.80662083 -39 134 C-38.34 134 -37.68 134 -37 134 C-36.00529549 130.52516559 -35.01397138 127.04966344 -34.03515625 123.5703125 C-33.71417969 122.43335937 -33.39320313 121.29640625 -33.0625 120.125 C-32.74410156 118.99320313 -32.42570312 117.86140625 -32.09765625 116.6953125 C-31.30062005 114.01205183 -30.44570998 111.40619102 -29.51953125 108.76953125 C-27.73131844 103.46054611 -26.69052914 98.05414143 -25.625 92.5625 C-23.94450461 84.16908582 -22.03151033 75.92082179 -19.61181641 67.70922852 C-18.46985378 63.82178573 -17.57493563 60.01205082 -17 56 C-58.06630698 56 -101.20105968 78.43858742 -132 104 Z M149 116 C148.37544922 116.93682617 147.75089844 117.87365234 147.10742188 118.83886719 C144.7516276 122.37255859 142.39583333 125.90625 140.04003906 129.43994141 C139.53182617 130.20226074 139.02361328 130.96458008 138.5 131.75 C137.01171875 133.98242188 137.01171875 133.98242188 135.5234375 136.21484375 C135.0380954 136.94290726 134.5527533 137.67097076 134.05270386 138.4210968 C133.08163928 139.87759211 132.11038743 141.33396257 131.13894653 142.79020691 C128.95398962 146.06600743 126.77111433 149.34310062 124.59716797 152.6262207 C123.89221191 153.68929443 123.18725586 154.75236816 122.4609375 155.84765625 C121.85556152 156.76297119 121.25018555 157.67828613 120.62646484 158.62133789 C115.36353712 166.31823144 115.36353712 166.31823144 112 168 C112.309375 166.783125 112.61875 165.56625 112.9375 164.3125 C113.71157177 161.2217028 114.41262688 158.13265666 115 155 C108.26948403 160.08527873 103.4580475 166.51005015 98.39648438 173.16845703 C97.08303552 174.89109573 95.75596984 176.60191849 94.421875 178.30859375 C89.97120628 184.01524744 85.64915237 189.80195662 81.4375 195.6875 C81.00751709 196.28820312 80.57753418 196.88890625 80.13452148 197.5078125 C77.89711957 200.64917549 77.89711957 200.64917549 76 204 C83.81896461 206.66963299 91.60621195 209.22573232 99.6015625 211.32421875 C102.38349559 212.10805332 105.0175271 213.12378135 107.703125 214.18359375 C111.90606368 215.67749543 116.23079467 216.77546763 120.53515625 217.9375 C124 219 124 219 127.47265625 220.5 C131.07846909 222.03336892 134.5780925 223.04480314 138.375 224 C142.54311618 225.06959865 146.67931722 226.15906965 150.75 227.5625 C160.69170301 230.96794523 170.8351419 233.036919 181.1328125 235.03515625 C188.66547804 236.50924739 196.12235409 238.24230141 203.5625 240.125 C204.28501953 240.30675781 205.00753906 240.48851562 205.75195312 240.67578125 C207.50157998 241.1160847 209.25083157 241.5578789 211 242 C210.52747765 233.76825929 209.35526276 225.99985482 207.375 218 C207.10848633 216.9162207 206.84197266 215.83244141 206.56738281 214.71582031 C197.4743189 178.7554456 178.82477059 139.48231131 149 116 Z M-147 118 C-179.58688019 147.93873643 -199.76295033 192.69352639 -206 236 C-206 237.32 -206 238.64 -206 240 C-204.45737855 239.71342606 -202.91594394 239.42046123 -201.375 239.125 C-200.51648438 238.96257812 -199.65796875 238.80015625 -198.7734375 238.6328125 C-196.00114037 238.05452034 -196.00114037 238.05452034 -193.40625 237.09375 C-188.39349829 235.48415083 -183.27202456 234.46525643 -178.125 233.375 C-177.05507812 233.14554687 -175.98515625 232.91609375 -174.8828125 232.6796875 C-172.25583942 232.1167647 -169.62824138 231.55696566 -167 231 C-167 230.34 -167 229.68 -167 229 C-165.98292969 228.94392578 -165.98292969 228.94392578 -164.9453125 228.88671875 C-158.24363416 228.4133315 -152.344509 227.16641771 -146 225 C-144.85724609 224.62488281 -144.85724609 224.62488281 -143.69140625 224.2421875 C-141.45686217 223.50637576 -139.22789516 222.75568324 -137 222 C-135.45885593 221.47762233 -133.91718983 220.95678219 -132.375 220.4375 C-131.70210938 220.20933594 -131.02921875 219.98117188 -130.3359375 219.74609375 C-124.82091884 217.98460786 -119.22526801 216.52420517 -113.625 215.0625 C-108.81308701 213.79357898 -104.07456546 212.41897736 -99.375 210.78125 C-96.25545207 209.75508292 -93.10002126 208.88443391 -89.9375 208 C-84.8384592 206.56365048 -79.91684843 204.96673937 -75 203 C-76.29614685 200.2812347 -77.72296209 197.83544761 -79.46875 195.3828125 C-79.95239014 194.70041504 -80.43603027 194.01801758 -80.93432617 193.31494141 C-81.45099854 192.59226074 -81.9676709 191.86958008 -82.5 191.125 C-83.03536377 190.3726709 -83.57072754 189.6203418 -84.12231445 188.84521484 C-85.22063909 187.30231861 -86.32000517 185.7601632 -87.42041016 184.21875 C-88.85503477 182.20362349 -90.27947372 180.18187348 -91.69921875 178.15625 C-101.18176976 164.52855565 -101.18176976 164.52855565 -113 153 C-112.505 159.435 -112.505 159.435 -112 166 C-116.32386478 162.54090818 -118.51496805 160.0087809 -121.1875 155.4375 C-125.70234014 147.97697991 -130.44031245 140.67873998 -135.26748657 133.41799927 C-136.08910299 132.18108888 -136.90874647 130.94286569 -137.72640991 129.70333862 C-138.88585078 127.94620662 -140.05137368 126.19327314 -141.21875 124.44140625 C-141.89873047 123.41732666 -142.57871094 122.39324707 -143.27929688 121.33813477 C-144.78813373 118.91622318 -144.78813373 118.91622318 -147 118 Z M2 215 C1.89042969 215.82242188 1.78085938 216.64484375 1.66796875 217.4921875 C-1.31340836 238.48302143 -1.31340836 238.48302143 -8 245 C-14.15088068 248.62585831 -20.79000134 250.01095244 -27.75 251.1875 C-28.66910156 251.35185547 -29.58820313 251.51621094 -30.53515625 251.68554688 C-32.2383143 251.98994632 -33.94232253 252.28966066 -35.64746094 252.58276367 C-38.10633237 253.01885866 -40.55294818 253.50217959 -43 254 C-43 254.66 -43 255.32 -43 256 C-41.20755859 256.38091797 -41.20755859 256.38091797 -39.37890625 256.76953125 C-35.29683198 257.64610028 -31.22519569 258.56300909 -27.15771484 259.50488281 C-25.46954489 259.8922565 -23.77658475 260.25876788 -22.08203125 260.6171875 C-15.50419976 262.31694573 -11.78509635 266.50773035 -8 272 C-4.00861738 278.86918199 -2.83585411 286.85952797 -1.39355469 294.57568359 C-1.24047852 295.37570801 -1.08740234 296.17573242 -0.9296875 297 C-0.79804199 297.721875 -0.66639648 298.44375 -0.53076172 299.1875 C-0.09009542 301.22983078 -0.09009542 301.22983078 2 303 C3.24016333 298.4209354 4.17646744 293.91137045 4.90722656 289.22045898 C6.56964824 279.05766319 9.26247111 271.46174523 17.8125 265.0625 C26.95698437 259.28275172 36.4484391 258.18166361 47 257 C44.52668011 254.52668011 43.36151051 254.5865585 39.9375 254.125 C34.61885046 253.3017991 29.3749666 252.30052733 24.125 251.125 C23.41206787 250.97562988 22.69913574 250.82625977 21.96459961 250.67236328 C15.86306562 249.27416961 11.45479244 247.06095596 7.75 241.8125 C5.19737482 236.22002658 4.95684386 229.97475625 4.39453125 223.92578125 C4.08771825 220.87284 3.67728616 217.98594853 3 215 C2.67 215 2.34 215 2 215 Z M-208 266 C-206.96742169 315.56375894 -190.72820032 361.77069851 -159 400 C-157.66409139 401.66460318 -156.33012231 403.33076958 -155 405 C-151.53915721 403.5793792 -150.03241539 402.02808942 -148.01074219 398.90844727 C-147.45626404 398.06318985 -146.90178589 397.21793243 -146.33050537 396.34706116 C-145.74190735 395.42944504 -145.15330933 394.51182892 -144.546875 393.56640625 C-143.92782288 392.61869858 -143.30877075 391.67099091 -142.67095947 390.69456482 C-140.68840087 387.6562328 -138.71867981 384.60983925 -136.75 381.5625 C-117.0671447 351.24545564 -117.0671447 351.24545564 -114 348 C-113.01 348 -112.02 348 -111 348 C-110.04975021 351.69541586 -110.04975021 354.30458414 -111 358 C-106.57574906 356.46694561 -104.46368337 352.97849588 -101.875 349.3125 C-101.39272949 348.64186523 -100.91045898 347.97123047 -100.41357422 347.28027344 C-96.37818742 341.629411 -92.51731589 335.86791168 -88.703125 330.06640625 C-86.66927915 326.98390701 -84.58661715 323.93860146 -82.484375 320.90234375 C-81.88608887 320.03706055 -81.28780273 319.17177734 -80.67138672 318.28027344 C-79.48917497 316.57395532 -78.30339337 314.87010411 -77.11376953 313.16894531 C-76.57864746 312.39518555 -76.04352539 311.62142578 -75.4921875 310.82421875 C-75.01120605 310.13416748 -74.53022461 309.44411621 -74.03466797 308.7331543 C-72.82913624 307.05020655 -72.82913624 307.05020655 -73 305 C-80.81574297 302.37702057 -80.81574297 302.37702057 -89 302 C-89 301.34 -89 300.68 -89 300 C-89.85980469 299.75765625 -90.71960938 299.5153125 -91.60546875 299.265625 C-97.72815628 297.52963944 -103.84368294 295.77273095 -109.9375 293.9375 C-110.93652344 293.63714844 -111.93554688 293.33679688 -112.96484375 293.02734375 C-116 292 -116 292 -119.38671875 290.50390625 C-123.19256145 288.9198528 -126.8727596 287.92085242 -130.875 287 C-135.89110736 285.79714043 -140.79859476 284.48169037 -145.671875 282.7890625 C-154.71912917 279.72271126 -163.42640689 277.3907589 -173 277 C-173 276.34 -173 275.68 -173 275 C-173.61746094 274.89042969 -174.23492187 274.78085937 -174.87109375 274.66796875 C-179.22716632 273.85244831 -183.38886518 272.94177827 -187.5625 271.4375 C-192.03786032 269.85514046 -196.27580485 269.37493612 -201 269 C-201 268.34 -201 267.68 -201 267 C-203.31 266.67 -205.62 266.34 -208 266 Z M204.1875 268.375 C203.3109375 268.64957031 202.434375 268.92414063 201.53125 269.20703125 C200.6959375 269.46871094 199.860625 269.73039062 199 270 C197.741875 270.350625 196.48375 270.70125 195.1875 271.0625 C192.12606614 271.88694818 192.12606614 271.88694818 189.828125 272.96484375 C186.13050498 274.31825439 182.44170995 274.88660625 178.5625 275.5 C172.63752761 276.441786 167.19703407 277.63967259 161.640625 280.00390625 C158.08181567 281.34635652 154.45840698 282.11662336 150.75 282.9375 C142.60868365 284.79750759 134.88839821 287.19723004 127.1171875 290.25390625 C125.33704244 290.88122674 123.52608581 291.42011806 121.7109375 291.9375 C118.0125979 292.99639302 114.39018033 294.19441714 110.75 295.4375 C105.31823176 297.27506281 99.86641714 298.91811281 94.3203125 300.375 C91.50494923 301.13334701 88.75040127 302.0336428 86 303 C86 303.66 86 304.32 86 305 C81.05 305.495 81.05 305.495 76 306 C76 310.71999092 77.53666338 312.60492082 80.25 316.1875 C81.17266213 317.44082717 82.09450142 318.6947604 83.015625 319.94921875 C83.50353516 320.60841309 83.99144531 321.26760742 84.49414062 321.94677734 C87.04748256 325.42823092 89.51913818 328.96673639 92 332.5 C93.0101089 333.92990496 94.02052423 335.3595935 95.03125 336.7890625 C96.97947668 339.54735471 98.91577155 342.31346152 100.84375 345.0859375 C101.72906115 346.34903229 102.61447272 347.61205672 103.5 348.875 C103.89703125 349.45185547 104.2940625 350.02871094 104.703125 350.62304688 C106.83961872 353.65584362 108.88018995 355.97212347 112 358 C112.59732819 355.23735711 113 352.83967231 113 350 C115.48011891 350.37462029 116.71178326 350.68878647 118.44116211 352.55615234 C119.10257202 353.560896 119.10257202 353.560896 119.77734375 354.5859375 C120.28394531 355.34205322 120.79054688 356.09816895 121.3125 356.87719727 C121.84875 357.70147217 122.385 358.52574707 122.9375 359.375 C124.10264913 361.12123753 125.26801982 362.86732724 126.43359375 364.61328125 C127.32280518 365.9583374 127.32280518 365.9583374 128.22998047 367.33056641 C130.95011462 371.4329039 133.7214029 375.49961685 136.5 379.5625 C137.28914795 380.71915161 137.28914795 380.71915161 138.09423828 381.89916992 C143.90381423 390.38023174 149.93530558 398.70023393 156 407 C177.12671775 397.17047593 192.59353146 358.65993835 200.28344727 338.09033203 C208.47674043 315.02250115 212.25512081 291.37552944 213 267 C209.47306213 267 207.4584936 267.33446345 204.1875 268.375 Z " fill="#A98701" transform="translate(254,5)"/>
<path d="M0 0 C0.99 1.485 0.99 1.485 2 3 C-23.06638236 18.55284605 -55.71996626 34.95370185 -86 34 C-86 33.67 -86 33.34 -86 33 C-85.03513672 32.81207886 -85.03513672 32.81207886 -84.05078125 32.62036133 C-71.13452176 30.08110026 -58.3958353 27.51133906 -46 23 C-44.85700439 22.58476074 -44.85700439 22.58476074 -43.69091797 22.16113281 C-28.34638339 16.49159237 -13.17955903 9.80197059 0 0 Z " fill="#A28619" transform="translate(372,445)"/>
<path d="M0 0 C0.79019531 0.47308594 1.58039063 0.94617188 2.39453125 1.43359375 C27.66228724 16.24771812 54.9034455 26.70050913 84 31 C84 31.33 84 31.66 84 32 C54.47153475 31.40727533 23.8256424 18.30675447 -1 3 C-0.67 2.01 -0.34 1.02 0 0 Z " fill="#A28618" transform="translate(143,447)"/>
<path d="M0 0 C0.99 0.33 1.98 0.66 3 1 C3.33 2.98 3.66 4.96 4 7 C2.02 7.66 0.04 8.32 -2 9 C-1.34 6.03 -0.68 3.06 0 0 Z " fill="#A28715" transform="translate(254,5)"/>
<path d="M0 0 C0.33 0.99 0.66 1.98 1 3 C1.66 3.33 2.32 3.66 3 4 C0.03 6.475 0.03 6.475 -3 9 C-3 8.34 -3 7.68 -3 7 C-3.99 6.67 -4.98 6.34 -6 6 C-5.195625 5.38125 -4.39125 4.7625 -3.5625 4.125 C-0.96125481 2.25835959 -0.96125481 2.25835959 0 0 Z " fill="#A48611" transform="translate(416,406)"/>
<path d="M0 0 C0.33 0 0.66 0 1 0 C1.3152595 5.98993047 0.68219822 9.63560356 -2 15 C-3.23922223 11.28233332 -2.57018942 9.56110463 -1.5625 5.8125 C-1.13130859 4.18248047 -1.13130859 4.18248047 -0.69140625 2.51953125 C-0.46324219 1.68808594 -0.23507813 0.85664062 0 0 Z " fill="#A2861A" transform="translate(235,67)"/>
<path d="M0 0 C1.31534494 3.65857532 0.65468309 6.08026481 -0.4375 9.75 C-0.86869141 11.22726562 -0.86869141 11.22726562 -1.30859375 12.734375 C-1.53675781 13.48203125 -1.76492188 14.2296875 -2 15 C-2.33 15 -2.66 15 -3 15 C-2.8858134 13.06183265 -2.75826577 11.12444901 -2.625 9.1875 C-2.55539062 8.10855469 -2.48578125 7.02960938 -2.4140625 5.91796875 C-2 3 -2 3 0 0 Z " fill="#A2861A" transform="translate(286,401)"/>
<path d="M0 0 C0.99 0.33 1.98 0.66 3 1 C4.47666292 4.49029418 4.07164685 8.27436386 4 12 C1.78600697 8.20458337 0.99019802 4.24370579 0 0 Z " fill="#A2851C" transform="translate(225,409)"/>
<path d="M0 0 C-3.465 1.485 -3.465 1.485 -7 3 C-7.66 2.34 -8.32 1.68 -9 1 C-3.375 -1.125 -3.375 -1.125 0 0 Z M-15 2 C-13.02 2 -11.04 2 -9 2 C-9 2.33 -9 2.66 -9 3 C-10.98 3 -12.96 3 -15 3 C-15 2.67 -15 2.34 -15 2 Z " fill="#A38617" transform="translate(124,226)"/>
<path d="M0 0 C6.52307692 -0.36923077 6.52307692 -0.36923077 8.9375 1.5 C9.288125 1.995 9.63875 2.49 10 3 C2.25 2.25 2.25 2.25 0 0 Z " fill="#A38615" transform="translate(104,286)"/>
<path d="M0 0 C0.66 0 1.32 0 2 0 C1.25 6.625 1.25 6.625 -1 10 C-1.125 3.375 -1.125 3.375 0 0 Z " fill="#A2861A" transform="translate(300,350)"/>
<path d="M0 0 C0 0.99 0 1.98 0 3 C-1.65 3.66 -3.3 4.32 -5 5 C-5 3.68 -5 2.36 -5 1 C-3.35 0.67 -1.7 0.34 0 0 Z " fill="#9E8625" transform="translate(18,255)"/>
<path d="M0 0 C0.33 0 0.66 0 1 0 C1 2.64 1 5.28 1 8 C0.01 8.33 -0.98 8.66 -2 9 C-1.34 6.03 -0.68 3.06 0 0 Z " fill="#A2861A" transform="translate(212,149)"/>
<path d="M0 0 C2.46800047 1.15173355 4.04783565 2.04783565 6 4 C5.01 4 4.02 4 3 4 C2.67 4.66 2.34 5.32 2 6 C0 3 0 3 0 0 Z " fill="#A1861B" transform="translate(92,95)"/>
<path d="M0 0 C2.64 0 5.28 0 8 0 C8 0.33 8 0.66 8 1 C5.36 1 2.72 1 0 1 C0 0.67 0 0.34 0 0 Z " fill="#998537" transform="translate(278,479)"/>
<path d="M0 0 C2.64 0 5.28 0 8 0 C8 0.33 8 0.66 8 1 C5.36 1 2.72 1 0 1 C0 0.67 0 0.34 0 0 Z " fill="#9B8530" transform="translate(227,479)"/>
</svg>
