<?xml version="1.0" encoding="UTF-8"?>
<!DOCTYPE svg PUBLIC "-//W3C//DTD SVG 1.1//EN" "http://www.w3.org/Graphics/SVG/1.1/DTD/svg11.dtd">
<svg xmlns="http://www.w3.org/2000/svg" version="1.1" width="512px" height="512px" style="shape-rendering:geometricPrecision; text-rendering:geometricPrecision; image-rendering:optimizeQuality; fill-rule:evenodd; clip-rule:evenodd" xmlns:xlink="http://www.w3.org/1999/xlink">
<g><path style="opacity:1" fill="#447051" d="M 406.5,-0.5 C 409.5,-0.5 412.5,-0.5 415.5,-0.5C 418.701,14.928 422.201,30.2614 426,45.5C 426.74,59.1799 426.574,72.8465 425.5,86.5C 425.958,92.3688 426.624,98.2021 427.5,104C 427.167,105 426.833,106 426.5,107C 428.73,110.622 429.063,114.456 427.5,118.5C 427.719,120.693 428.385,122.693 429.5,124.5C 428.903,124.735 428.57,125.235 428.5,126C 430.258,128.267 430.758,130.767 430,133.5C 428.844,132.007 428.01,132.174 427.5,134C 427.645,134.772 427.978,135.439 428.5,136C 426.767,140.4 425.1,144.9 423.5,149.5C 423.709,150.086 424.043,150.586 424.5,151C 423.167,153.667 421.833,156.333 420.5,159C 420.743,161.545 420.743,164.045 420.5,166.5C 418.926,168.603 417.926,170.937 417.5,173.5C 416.732,175.715 416.065,178.048 415.5,180.5C 415.437,184.626 415.437,188.793 415.5,193C 413.435,202.277 411.602,211.444 410,220.5C 408.701,221.98 407.034,222.646 405,222.5C 402.245,221.595 399.412,220.928 396.5,220.5C 392.333,222.012 388.333,222.679 384.5,222.5C 390.245,230.912 395.245,239.245 399.5,247.5C 396.418,249.513 394.752,252.013 394.5,255C 392.113,255.976 390.946,257.809 391,260.5C 390.667,260.167 390.333,259.833 390,259.5C 386.324,266.172 382.657,272.839 379,279.5C 373.491,283.318 369.325,287.818 366.5,293C 361.025,297.804 355.525,302.638 350,307.5C 349.517,308.448 349.351,309.448 349.5,310.5C 347.692,310.491 346.025,310.991 344.5,312C 340.335,314.83 336.501,318.663 333,323.5C 332.667,323.167 332.333,322.833 332,322.5C 329.333,324.5 327,326.833 325,329.5C 324.667,329.167 324.333,328.833 324,328.5C 321.87,331.697 319.036,334.031 315.5,335.5C 314.527,336.791 313.527,336.791 312.5,335.5C 311.438,336.425 311.438,337.425 312.5,338.5C 308.484,341.275 304.318,344.609 300,348.5C 297.679,347.639 296.513,348.639 296.5,351.5C 293.579,351.146 291.246,352.146 289.5,354.5C 287.033,353.126 285.199,353.793 284,356.5C 281.928,353.846 280.261,354.18 279,357.5C 277.883,357.335 276.716,357.002 275.5,356.5C 274.808,357.025 274.308,357.692 274,358.5C 271.272,358.228 268.606,358.228 266,358.5C 263.595,361.033 260.929,362.367 258,362.5C 255.363,362.013 252.863,362.013 250.5,362.5C 248.099,363.687 245.765,365.021 243.5,366.5C 241.557,366.385 239.724,366.385 238,366.5C 235.743,367.711 233.576,369.044 231.5,370.5C 230.707,370.069 229.873,369.735 229,369.5C 226.43,369.689 224.097,371.023 222,373.5C 220.237,373.694 218.403,373.694 216.5,373.5C 214.226,373.97 212.226,374.97 210.5,376.5C 209.914,376.291 209.414,375.957 209,375.5C 206.393,378.025 203.727,378.025 201,375.5C 198.204,377.166 195.704,376.833 193.5,374.5C 191.745,377.023 189.911,377.023 188,374.5C 185.699,375.252 183.533,375.585 181.5,375.5C 180.513,370.695 180.179,365.695 180.5,360.5C 181.832,353.802 181.499,347.135 179.5,340.5C 180.888,338.891 181.888,337.058 182.5,335C 182.744,331.695 182.744,328.362 182.5,325C 185.195,323.584 185.861,321.584 184.5,319C 185.308,318.692 185.975,318.192 186.5,317.5C 186.431,315.722 186.097,313.889 185.5,312C 186.991,309.282 188.324,306.449 189.5,303.5C 190.533,302.548 191.7,302.548 193,303.5C 194.032,301.855 195.199,301.522 196.5,302.5C 199.006,301.108 201.506,299.775 204,298.5C 206.234,299.705 207.901,299.039 209,296.5C 210.017,299.028 211.184,299.028 212.5,296.5C 213.086,296.709 213.586,297.043 214,297.5C 215,295.833 216.333,294.5 218,293.5C 219.017,296.028 220.184,296.028 221.5,293.5C 223.478,292.869 225.645,292.869 228,293.5C 230.355,291.175 232.855,289.842 235.5,289.5C 236.803,290.718 237.803,290.385 238.5,288.5C 239.167,289.167 239.833,289.833 240.5,290.5C 243.508,290.256 246.341,288.923 249,286.5C 251.629,285.726 254.462,285.726 257.5,286.5C 258.353,283.52 257.019,282.187 253.5,282.5C 251.723,282.214 250.056,281.547 248.5,280.5C 247.584,280.543 246.917,280.876 246.5,281.5C 245.048,282.713 243.714,282.38 242.5,280.5C 241.808,281.025 241.308,281.692 241,282.5C 239.414,281.624 237.914,280.624 236.5,279.5C 235.808,280.025 235.308,280.692 235,281.5C 234.16,278.536 233.16,278.203 232,280.5C 230.185,278.595 228.185,276.928 226,275.5C 224.315,277.988 222.981,277.655 222,274.5C 221.667,275.167 221.333,275.833 221,276.5C 219.901,273.961 218.234,273.295 216,274.5C 214.469,272.703 212.636,271.37 210.5,270.5C 209.167,270.5 208.5,269.833 208.5,268.5C 208.586,267.504 208.252,266.671 207.5,266C 208.448,265.517 209.448,265.351 210.5,265.5C 210.238,264.022 210.571,262.689 211.5,261.5C 214.152,256.653 217.152,251.987 220.5,247.5C 220.291,246.914 219.957,246.414 219.5,246C 220.931,245.535 222.097,244.701 223,243.5C 225.527,239.779 227.527,235.779 229,231.5C 231.557,232.646 232.89,231.646 233,228.5C 233.667,227.167 234.333,227.167 235,228.5C 235.935,225.898 237.768,224.398 240.5,224C 242.123,221.92 243.623,219.754 245,217.5C 245.333,217.833 245.667,218.167 246,218.5C 247,217.167 248,215.833 249,214.5C 249.414,214.957 249.914,215.291 250.5,215.5C 252.146,212.163 254.646,209.83 258,208.5C 258.29,206.956 258.956,205.623 260,204.5C 260.333,205.167 260.667,205.833 261,206.5C 265.696,201.141 270.362,195.808 275,190.5C 276.073,191.28 277.24,191.113 278.5,190C 281.79,187.386 284.29,184.219 286,180.5C 287.716,181.552 288.716,180.886 289,178.5C 290.943,178.959 292.276,177.959 293,175.5C 293.333,175.833 293.667,176.167 294,176.5C 296.056,175.417 297.389,173.75 298,171.5C 298.718,172.451 299.551,172.617 300.5,172C 309.014,164.98 317.014,156.813 324.5,147.5C 326.817,145.684 328.984,143.684 331,141.5C 331.333,141.833 331.667,142.167 332,142.5C 334.444,140.444 336.277,137.944 337.5,135C 340.357,135.253 342.691,133.919 344.5,131C 344,130.5 343.5,130 343,129.5C 340.929,130.364 339.262,131.697 338,133.5C 337.439,132.978 336.772,132.645 336,132.5C 332.505,133.852 328.839,135.519 325,137.5C 322.983,137.075 321.149,137.075 319.5,137.5C 316.423,140.426 313.09,141.426 309.5,140.5C 307.219,140.077 305.552,140.744 304.5,142.5C 303.811,143.774 302.977,143.774 302,142.5C 301.085,143.328 300.419,144.328 300,145.5C 299.439,144.978 298.772,144.645 298,144.5C 296.662,145.506 295.329,146.506 294,147.5C 293.692,146.692 293.192,146.025 292.5,145.5C 290.165,145.782 287.998,147.115 286,149.5C 284.187,148.391 283.354,149.058 283.5,151.5C 282.127,151.343 280.793,151.51 279.5,152C 276.658,154.5 273.824,157 271,159.5C 270.667,159.167 270.333,158.833 270,158.5C 266.187,161.325 262.687,164.492 259.5,168C 256.809,167.946 254.976,169.113 254,171.5C 253.667,171.167 253.333,170.833 253,170.5C 248.727,175.358 243.893,179.358 238.5,182.5C 238.688,184.103 238.188,185.437 237,186.5C 235.927,185.72 234.76,185.887 233.5,187C 232.853,188.609 232.02,190.109 231,191.5C 230.667,191.167 230.333,190.833 230,190.5C 228.074,192.539 225.907,194.206 223.5,195.5C 221.784,195.371 220.117,195.038 218.5,194.5C 216.09,194.079 214.257,192.746 213,190.5C 212.667,190.833 212.333,191.167 212,191.5C 210.833,189.833 209.667,188.167 208.5,186.5C 205.913,186.817 204.08,185.483 203,182.5C 202.667,182.833 202.333,183.167 202,183.5C 201.74,181.382 200.74,179.716 199,178.5C 198.667,178.833 198.333,179.167 198,179.5C 196.471,178.271 195.304,176.771 194.5,175C 193.552,174.517 192.552,174.351 191.5,174.5C 191.506,171.452 190.506,170.952 188.5,173C 189.935,175.267 189.602,177.267 187.5,179C 188.03,184.256 188.03,189.59 187.5,195C 191.868,202.567 195.535,210.4 198.5,218.5C 197.167,218.5 195.833,218.5 194.5,218.5C 194.688,220.103 194.188,221.437 193,222.5C 192.195,220.099 191.362,220.266 190.5,223C 186.35,225.33 182.684,228.163 179.5,231.5C 179.833,232.167 180.167,232.833 180.5,233.5C 179.833,233.833 179.167,234.167 178.5,234.5C 178.833,235.167 179.167,235.833 179.5,236.5C 179.154,237.696 178.654,237.696 178,236.5C 177.536,237.094 177.369,237.761 177.5,238.5C 175.767,239.008 175.434,239.841 176.5,241C 173.044,245.829 170.044,250.995 167.5,256.5C 167.833,257.167 168.167,257.833 168.5,258.5C 167.833,258.833 167.167,259.167 166.5,259.5C 167.428,260.768 167.595,262.101 167,263.5C 165.018,262.906 163.184,261.74 161.5,260C 162.451,259.282 162.617,258.449 162,257.5C 161,257.167 160,256.833 159,256.5C 158.667,255.5 158.333,254.5 158,253.5C 155.555,252.023 153.388,250.19 151.5,248C 152.336,246.757 152.003,245.59 150.5,244.5C 149.914,244.709 149.414,245.043 149,245.5C 148.448,242.385 146.781,240.052 144,238.5C 143.667,238.833 143.333,239.167 143,239.5C 140.607,237.225 138.107,234.892 135.5,232.5C 134.264,231.754 132.93,231.421 131.5,231.5C 131.5,230.5 131.5,229.5 131.5,228.5C 130.07,228.579 128.736,228.246 127.5,227.5C 126.5,225.833 125.167,224.5 123.5,223.5C 122.49,226.026 123.157,228.192 125.5,230C 124.978,230.561 124.645,231.228 124.5,232C 126.608,239.594 128.942,247.094 131.5,254.5C 130.109,256.936 130.609,257.602 133,256.5C 132.57,260.339 133.903,263.673 137,266.5C 137.333,266.167 137.667,265.833 138,265.5C 138.492,266.549 138.326,267.549 137.5,268.5C 139.131,270.22 140.297,272.22 141,274.5C 141.667,275.833 142.333,275.833 143,274.5C 143.419,275.672 144.085,276.672 145,277.5C 144.293,280.571 145.293,283.238 148,285.5C 148.333,285.167 148.667,284.833 149,284.5C 149.667,286.167 149.667,287.833 149,289.5C 147.878,291.42 147.044,293.42 146.5,295.5C 146.483,297.565 146.15,299.565 145.5,301.5C 145.261,303.467 145.594,305.301 146.5,307C 143.972,308.017 143.972,309.184 146.5,310.5C 145.115,311.551 144.115,312.884 143.5,314.5C 144.811,315.258 145.311,316.258 145,317.5C 142.139,317.092 141.972,317.925 144.5,320C 143.426,320.739 142.759,321.739 142.5,323C 143.833,324.667 143.833,326.333 142.5,328C 142.95,329.285 143.617,330.452 144.5,331.5C 141.972,333.505 142.305,335.171 145.5,336.5C 144.833,337.833 144.167,339.167 143.5,340.5C 144.491,341.665 145.491,342.832 146.5,344C 143.977,345.911 143.977,347.745 146.5,349.5C 144.92,352.42 145.253,355.086 147.5,357.5C 147.023,358.478 146.357,359.311 145.5,360C 146.428,360.388 147.095,361.055 147.5,362C 146.767,363.766 146.433,365.599 146.5,367.5C 146.833,368.5 147.5,369.167 148.5,369.5C 148.586,370.496 148.252,371.329 147.5,372C 148.87,373.441 149.87,375.108 150.5,377C 150.346,379.846 150.346,382.68 150.5,385.5C 152.546,392.438 154.379,399.438 156,406.5C 156.383,407.056 156.883,407.389 157.5,407.5C 160.213,415.469 163.047,423.469 166,431.5C 166.654,430.304 167.154,430.304 167.5,431.5C 165.978,433.156 166.311,434.323 168.5,435C 168.043,435.414 167.709,435.914 167.5,436.5C 169.306,441.055 170.806,445.721 172,450.5C 175.113,452.058 175.28,453.891 172.5,456C 173.328,456.915 174.328,457.581 175.5,458C 174.941,458.725 174.608,459.558 174.5,460.5C 175.906,463.337 176.739,466.337 177,469.5C 177.5,470.667 178.333,471.5 179.5,472C 178.483,473.049 178.316,474.216 179,475.5C 181.44,478.728 183.606,482.061 185.5,485.5C 185.833,486.167 186.167,486.833 186.5,487.5C 187.473,489.447 188.473,491.447 189.5,493.5C 191.529,492.371 191.863,492.871 190.5,495C 193.302,499.44 195.969,503.94 198.5,508.5C 196.302,508.12 194.635,508.787 193.5,510.5C 192.312,509.316 191.145,509.316 190,510.5C 189.047,508.545 187.713,506.878 186,505.5C 185.667,505.833 185.333,506.167 185,506.5C 184.558,504.321 183.558,503.655 182,504.5C 181.951,501.584 180.784,500.584 178.5,501.5C 177.738,500.372 177.071,499.205 176.5,498C 175.551,497.383 174.718,497.549 174,498.5C 173.077,497.241 172.243,495.908 171.5,494.5C 170.914,494.709 170.414,495.043 170,495.5C 168.122,493.957 166.622,492.124 165.5,490C 164.552,489.517 163.552,489.351 162.5,489.5C 160.45,482.366 157.45,475.366 153.5,468.5C 151.07,463.301 148.903,457.968 147,452.5C 145.719,452.619 144.552,452.119 143.5,451C 144.167,450.667 144.833,450.333 145.5,450C 142.335,447.49 140.335,444.324 139.5,440.5C 138.5,440.5 137.5,440.5 136.5,440.5C 136.5,439.167 136.5,437.833 136.5,436.5C 135.448,436.649 134.448,436.483 133.5,436C 133.833,435.667 134.167,435.333 134.5,435C 132.699,432.557 131.032,430.057 129.5,427.5C 129.167,426.833 128.833,426.167 128.5,425.5C 123.512,418.752 119.179,412.085 115.5,405.5C 114.624,404.749 113.624,404.249 112.5,404C 113.451,403.282 113.617,402.449 113,401.5C 112.333,400.167 111.667,400.167 111,401.5C 109.269,397.933 107.769,394.266 106.5,390.5C 105.5,390.5 104.5,390.5 103.5,390.5C 102.299,381.61 100.299,372.277 97.5,362.5C 98.32,360.057 97.6533,357.891 95.5,356C 96.613,353.151 95.9463,350.651 93.5,348.5C 93.8333,347.833 94.1667,347.167 94.5,346.5C 93.0758,344.709 91.7424,342.875 90.5,341C 90.9574,340.586 91.2907,340.086 91.5,339.5C 89.5928,335.273 87.5928,331.106 85.5,327C 86.0393,324.149 85.0393,321.649 82.5,319.5C 82.7906,314.673 82.7906,310.34 82.5,306.5C 83.0671,304.302 83.0671,301.969 82.5,299.5C 83.1856,295.713 82.1856,292.546 79.5,290C 80.0944,289.536 80.7611,289.369 81.5,289.5C 82.5983,288.399 82.765,287.066 82,285.5C 81.6667,285.833 81.3333,286.167 81,286.5C 80.7216,285.584 80.2216,284.918 79.5,284.5C 79.5,284.167 79.5,283.833 79.5,283.5C 81.1898,283.144 82.1898,282.144 82.5,280.5C 82.6553,275.562 82.6553,270.562 82.5,265.5C 83.9028,261.501 85.2362,257.501 86.5,253.5C 86.0133,252.554 85.6799,251.554 85.5,250.5C 87.0193,246.735 88.6859,243.069 90.5,239.5C 89.5221,238.199 89.8555,237.032 91.5,236C 91.3552,235.228 91.0219,234.561 90.5,234C 92.0728,231.6 93.5728,229.1 95,226.5C 94.6443,223.64 95.6443,220.973 98,218.5C 98.4221,216.645 98.9221,214.811 99.5,213C 104.641,205.852 109.808,198.686 115,191.5C 116.009,189.975 116.509,188.308 116.5,186.5C 121.63,183.535 125.63,179.368 128.5,174C 129.833,173.667 131.167,173.333 132.5,173C 136.471,168.358 140.471,163.692 144.5,159C 148.796,158.053 151.463,155.553 152.5,151.5C 156.268,150.863 159.101,148.863 161,145.5C 161.333,145.833 161.667,146.167 162,146.5C 164.35,144.317 166.517,141.984 168.5,139.5C 169.086,139.709 169.586,140.043 170,140.5C 175.283,136.195 179.95,131.862 184,127.5C 184.414,127.957 184.914,128.291 185.5,128.5C 186.167,127.5 186.833,126.5 187.5,125.5C 188.086,125.709 188.586,126.043 189,126.5C 190,125.167 191,123.833 192,122.5C 192.333,122.833 192.667,123.167 193,123.5C 201.222,117.068 209.889,111.068 219,105.5C 220,105.833 221,106.167 222,106.5C 230.412,102.384 238.245,98.051 245.5,93.5C 248.62,92.4095 251.787,92.4095 255,93.5C 255.745,92.0096 256.912,91.0096 258.5,90.5C 262.006,89.815 265.34,89.815 268.5,90.5C 270.775,87.7023 273.108,87.3689 275.5,89.5C 276.2,86.9851 277.533,86.3184 279.5,87.5C 280.192,86.9747 280.692,86.3081 281,85.5C 282.885,87.7154 284.718,87.3821 286.5,84.5C 287.086,84.7093 287.586,85.0426 288,85.5C 289.351,83.981 290.851,82.6477 292.5,81.5C 294.07,81.6938 295.57,81.6938 297,81.5C 298.582,78.6591 300.749,77.6591 303.5,78.5C 304.218,75.942 305.551,75.2753 307.5,76.5C 307.435,76.9382 307.601,77.2716 308,77.5C 309.359,76.635 310.526,75.635 311.5,74.5C 313.017,74.4894 314.184,73.8228 315,72.5C 315.333,72.8333 315.667,73.1667 316,73.5C 317.733,70.5238 319.899,68.5238 322.5,67.5C 323.086,67.7093 323.586,68.0426 324,68.5C 326.279,66.7107 328.279,64.7107 330,62.5C 331.558,63.3452 332.558,62.6785 333,60.5C 333.333,60.8333 333.667,61.1667 334,61.5C 338.496,57.8307 342.996,54.9974 347.5,53C 350,51.8333 351.833,50 353,47.5C 354.716,48.5523 355.716,47.8856 356,45.5C 356.718,46.4506 357.551,46.6172 358.5,46C 359.147,44.3905 359.98,42.8905 361,41.5C 364.524,41.7171 367.191,40.0505 369,36.5C 369.414,36.9574 369.914,37.2907 370.5,37.5C 371.584,36.3349 372.417,35.0016 373,33.5C 373.333,34.1667 373.667,34.8333 374,35.5C 374.923,34.2412 375.757,32.9079 376.5,31.5C 377.906,32.6682 379.072,32.3348 380,30.5C 380.333,29.1667 380.667,27.8333 381,26.5C 381.667,27.8333 382.333,27.8333 383,26.5C 383.617,25.5509 383.451,24.7175 382.5,24C 383.552,22.8808 384.719,22.3808 386,22.5C 386.483,21.552 386.649,20.552 386.5,19.5C 391.283,13.9782 395.617,7.9782 399.5,1.5C 401.969,0.831949 404.302,0.165283 406.5,-0.5 Z M 262.5,284.5 C 263.077,283.227 263.743,283.227 264.5,284.5C 264.03,285.463 263.363,285.463 262.5,284.5 Z"/></g>
<g><path style="opacity:1" fill="#50705c" d="M 386.5,19.5 C 385.833,18.1667 385.833,18.1667 386.5,19.5 Z"/></g>
<g><path style="opacity:1" fill="#487058" d="M 311.5,74.5 C 310.526,75.635 309.359,76.635 308,77.5C 307.601,77.2716 307.435,76.9382 307.5,76.5C 308.375,74.1939 309.708,73.5272 311.5,74.5 Z"/></g>
<g><path style="opacity:1" fill="#50705c" d="M 429.5,124.5 C 430.833,125.167 430.833,125.167 429.5,124.5 Z"/></g>
<g><path style="opacity:1" fill="#4a7057" d="M 309.5,140.5 C 309.631,141.376 309.298,142.043 308.5,142.5C 307.135,141.193 305.802,141.193 304.5,142.5C 305.552,140.744 307.219,140.077 309.5,140.5 Z"/></g>
<g><path style="opacity:1" fill="#4d705a" d="M 417.5,173.5 C 418.01,176.388 417.344,178.721 415.5,180.5C 416.065,178.048 416.732,175.715 417.5,173.5 Z"/></g>
<g><path style="opacity:1" fill="#466c54" d="M 218.5,194.5 C 220.117,195.038 221.784,195.371 223.5,195.5C 221.543,198.059 219.877,197.726 218.5,194.5 Z"/></g>
<g><path style="opacity:1" fill="#50705c" d="M 177.5,238.5 C 178.833,239.167 178.833,239.167 177.5,238.5 Z"/></g>
<g><path style="opacity:1" fill="#4d6c5a" d="M 208.5,268.5 C 208.5,269.833 209.167,270.5 210.5,270.5C 209.791,271.404 208.791,271.737 207.5,271.5C 207.263,270.209 207.596,269.209 208.5,268.5 Z"/></g>
<g><path style="opacity:1" fill="#4a7058" d="M 246.5,281.5 C 246.917,280.876 247.584,280.543 248.5,280.5C 250.056,281.547 251.723,282.214 253.5,282.5C 253.083,283.124 252.416,283.457 251.5,283.5C 249.944,282.453 248.277,281.786 246.5,281.5 Z"/></g>
<g><path style="opacity:1" fill="#4f6c59" d="M 82.5,280.5 C 82.1898,282.144 81.1898,283.144 79.5,283.5C 79.8102,281.856 80.8102,280.856 82.5,280.5 Z"/></g>
<g><path style="opacity:1" fill="#4c6f57" d="M 79.5,284.5 C 80.2216,284.918 80.7216,285.584 81,286.5C 81.3333,286.167 81.6667,285.833 82,285.5C 82.765,287.066 82.5983,288.399 81.5,289.5C 80.4975,287.989 79.8308,286.322 79.5,284.5 Z"/></g>
<g><path style="opacity:1" fill="#4f6f58" d="M 146.5,295.5 C 147.147,296.274 147.48,297.274 147.5,298.5C 147.36,300.03 146.693,301.03 145.5,301.5C 146.15,299.565 146.483,297.565 146.5,295.5 Z"/></g>
<g><path style="opacity:1" fill="#4a7057" d="M 82.5,299.5 C 83.0671,301.969 83.0671,304.302 82.5,306.5C 81.1667,304.167 81.1667,301.833 82.5,299.5 Z"/></g>
<g><path style="opacity:1" fill="#4b715a" d="M 315.5,335.5 C 315.19,337.144 314.19,338.144 312.5,338.5C 311.438,337.425 311.438,336.425 312.5,335.5C 313.527,336.791 314.527,336.791 315.5,335.5 Z"/></g>
<g><path style="opacity:1" fill="#4a6b56" d="M 180.5,360.5 C 180.179,365.695 180.513,370.695 181.5,375.5C 181.44,376.043 181.107,376.376 180.5,376.5C 179.185,371.014 179.185,365.68 180.5,360.5 Z"/></g>
<g><path style="opacity:1" fill="#51705b" d="M 146.5,367.5 C 147.675,367.281 148.675,367.614 149.5,368.5C 149.376,369.107 149.043,369.44 148.5,369.5C 147.5,369.167 146.833,368.5 146.5,367.5 Z"/></g>
<g><path style="opacity:1" fill="#50705c" d="M 157.5,406.5 C 158.833,407.167 158.833,407.167 157.5,406.5 Z"/></g>
<g><path style="opacity:1" fill="#4f6d5d" d="M 128.5,425.5 C 128.833,426.167 129.167,426.833 129.5,427.5C 127.576,427.289 127.243,426.623 128.5,425.5 Z"/></g>
<g><path style="opacity:1" fill="#4f705b" d="M 153.5,468.5 C 153.631,469.239 153.464,469.906 153,470.5C 152.308,469.563 152.475,468.897 153.5,468.5 Z"/></g>
<g><path style="opacity:1" fill="#54705c" d="M 185.5,485.5 C 187.424,485.711 187.757,486.377 186.5,487.5C 186.167,486.833 185.833,486.167 185.5,485.5 Z"/></g>
<g><path style="opacity:1" fill="#4d7058" d="M 198.5,508.5 C 197.1,509.1 196.1,510.1 195.5,511.5C 194.833,511.5 194.167,511.5 193.5,511.5C 193.5,511.167 193.5,510.833 193.5,510.5C 194.635,508.787 196.302,508.12 198.5,508.5 Z"/></g>
</svg>
